<?xml version="1.0" encoding="UTF-8" standalone="no"?>
<!DOCTYPE svg PUBLIC "-//W3C//DTD SVG 1.1//EN" "http://www.w3.org/Graphics/SVG/1.1/DTD/svg11.dtd">
<svg width="100%" height="100%" viewBox="0 0 1279 874" version="1.1" xmlns="http://www.w3.org/2000/svg" xmlns:xlink="http://www.w3.org/1999/xlink" xml:space="preserve" xmlns:serif="http://www.serif.com/" style="fill-rule:evenodd;clip-rule:evenodd;stroke-linecap:square;stroke-linejoin:round;stroke-miterlimit:1.5;">
    <g transform="matrix(1,0,0,1,-1355,0)">
        <g id="Artboard2" transform="matrix(1.26368,0,0,1.13826,-526.1,-19.4596)">
            <rect x="1489.17" y="17.096" width="1010.88" height="767.192" style="fill:none;"/>
            <g transform="matrix(5.52746,0,0,6.13647,266.692,-4037.41)">
                <g id="Circle" transform="matrix(1.02423,0,0,1.02423,-7.52675,-17.5218)">
                    <g transform="matrix(1,0,0,1,-53.0988,518.4)">
                        <path d="M411.006,217.359C405.495,237.691 386.899,252.665 364.833,252.665C342.765,252.665 324.168,237.689 318.659,217.355" style="fill:none;stroke:black;stroke-width:0.4px;"/>
                    </g>
                    <g transform="matrix(1,0,0,1,-53.0988,518.4)">
                        <path d="M317.105,201.645C318.747,176.729 339.504,157 364.833,157C390.172,157 410.935,176.745 412.563,201.676" style="fill:none;stroke:black;stroke-width:0.4px;"/>
                    </g>
                </g>
                <g transform="matrix(0.745804,0,0,0.745804,39.666,570.468)">
                    <g transform="matrix(0.616063,-1.19093,1.19093,0.616063,-87.9019,456.702)">
                        <path d="M323.123,173.85C322.885,173.409 322.458,173.185 321.988,173.185C321.155,173.185 320.792,173.808 320.792,174.347C320.792,174.529 320.834,174.704 320.938,174.879C321.099,175.145 321.33,175.271 321.792,175.495C322.177,175.684 322.451,175.824 322.584,175.901C322.941,176.118 323.039,176.384 323.039,176.636C323.039,177.252 322.542,177.714 321.911,177.714C321.589,177.714 321.246,177.581 321.036,177.315C320.966,177.231 320.848,177.049 320.785,176.867L320.519,176.993C320.561,177.112 320.638,177.294 320.82,177.504C320.994,177.707 321.302,177.993 321.904,177.993C322.703,177.993 323.36,177.413 323.36,176.629C323.36,176.111 323.067,175.866 322.864,175.726C322.626,175.558 322.395,175.46 321.932,175.236C321.463,175.005 321.113,174.837 321.113,174.333C321.113,173.864 321.428,173.464 321.981,173.464C322.107,173.464 322.612,173.478 322.899,174.039L323.123,173.85Z" style="fill-rule:nonzero;"/>
                    </g>
                    <g transform="matrix(0.744108,-1.11541,1.11541,0.744108,-110.899,409.658)">
                        <path d="M322.717,170.037L322.41,170.037L322.41,174.705L322.717,174.705L322.717,172.599L322.843,172.48L325.041,174.705L325.461,174.705L323.067,172.27L325.328,170.037L324.922,170.037L322.717,172.235L322.717,170.037Z" style="fill-rule:nonzero;"/>
                    </g>
                    <g transform="matrix(0.84658,-1.03978,1.03978,0.84658,-126.353,368.036)">
                        <path d="M326.81,171.558L325.284,169.353C325.39,169.353 325.614,169.346 325.859,169.262C326.44,169.066 326.642,168.59 326.642,168.128C326.642,167.764 326.524,167.379 326.16,167.127C325.852,166.917 325.53,166.889 325.172,166.889L324.501,166.889L324.501,171.558L324.808,171.558L324.808,169.353L324.948,169.353L326.461,171.558L326.81,171.558ZM324.808,167.169L325.193,167.169C325.376,167.169 325.712,167.197 325.908,167.309C326.09,167.407 326.321,167.652 326.321,168.121C326.321,168.723 325.922,169.073 325.256,169.073L324.808,169.073L324.808,167.169Z" style="fill-rule:nonzero;"/>
                    </g>
                    <g transform="matrix(0.964208,-0.931743,0.931743,0.964208,-142.934,313.678)">
                        <path d="M329.392,169.111L331.645,169.111L331.519,168.832L329.608,168.832L328.741,166.696L330.616,166.696L330.497,166.417L328.622,166.417L327.928,164.722L329.853,164.722L329.734,164.443L327.711,164.443L325.829,169.111L326.164,169.111L326.773,167.578L328.769,167.578L329.392,169.111ZM326.885,167.299L327.76,165.1L328.65,167.299L326.885,167.299Z" style="fill-rule:nonzero;"/>
                    </g>
                    <g transform="matrix(1.08968,-0.781308,0.781308,1.08968,-154.062,245.807)">
                        <path d="M331.613,164.997C332.026,164.997 332.747,164.934 333.335,164.346C333.832,163.849 334.007,163.177 334.007,162.666C334.007,162.155 333.832,161.476 333.335,160.979C332.747,160.391 332.026,160.328 331.613,160.328L330.689,160.328L330.689,164.997L331.613,164.997ZM330.997,160.608L331.606,160.608C332.831,160.608 333.685,161.469 333.685,162.666C333.685,163.877 332.838,164.717 331.606,164.717L330.997,164.717L330.997,160.608Z" style="fill-rule:nonzero;"/>
                    </g>
                    <g transform="matrix(1.17588,-0.644317,0.644317,1.17588,-157.702,188.208)">
                        <path d="M335.115,162.466C335.528,162.466 336.25,162.403 336.838,161.816C337.335,161.319 337.509,160.646 337.509,160.135C337.509,159.624 337.335,158.945 336.838,158.448C336.25,157.861 335.528,157.798 335.115,157.798L334.192,157.798L334.192,162.466L335.115,162.466ZM334.499,158.077L335.108,158.077C336.334,158.077 337.188,158.938 337.188,160.135C337.188,161.347 336.341,162.187 335.108,162.187L334.499,162.187L334.499,158.077Z" style="fill-rule:nonzero;"/>
                    </g>
                    <g transform="matrix(1.23776,-0.51554,0.51554,1.23776,-155.964,136.947)">
                        <path d="M340.235,155.731L337.996,155.731L337.996,160.399L340.235,160.399L340.235,160.12L338.303,160.12L338.303,157.984L340.193,157.984L340.193,157.705L338.303,157.705L338.303,156.01L340.235,156.01L340.235,155.731Z" style="fill-rule:nonzero;"/>
                    </g>
                    <g transform="matrix(1.28023,-0.398553,0.398553,1.28023,-150.842,91.7868)">
                        <path d="M343.306,159.135L341.78,156.93C341.885,156.93 342.109,156.923 342.354,156.839C342.935,156.644 343.138,156.168 343.138,155.706C343.138,155.341 343.019,154.956 342.655,154.704C342.347,154.495 342.025,154.467 341.668,154.467L340.997,154.467L340.997,159.135L341.304,159.135L341.304,156.93L341.444,156.93L342.956,159.135L343.306,159.135ZM341.304,154.746L341.689,154.746C341.871,154.746 342.207,154.774 342.403,154.886C342.585,154.984 342.817,155.229 342.817,155.699C342.817,156.301 342.417,156.651 341.752,156.651L341.304,156.651L341.304,154.746Z" style="fill-rule:nonzero;"/>
                    </g>
                    <g transform="matrix(1.31839,-0.244321,0.244321,1.31839,-138.959,33.9583)">
                        <path d="M346.552,156.129L348.204,156.129C348.19,156.431 348.078,156.816 347.896,157.096C347.644,157.481 347.07,157.887 346.272,157.887C345.068,157.887 344.186,156.949 344.186,155.78C344.186,154.59 345.096,153.637 346.293,153.637C346.874,153.637 347.336,153.883 347.63,154.128C347.756,154.233 347.945,154.422 348.078,154.646L348.323,154.45C348.134,154.184 347.959,154.016 347.763,153.862C347.399,153.582 346.958,153.358 346.3,153.358C344.942,153.358 343.865,154.38 343.865,155.766C343.865,157.159 344.907,158.166 346.279,158.166C346.993,158.166 347.623,157.908 348.036,157.383C348.421,156.893 348.512,156.277 348.512,155.85L346.552,155.85L346.552,156.129Z" style="fill-rule:nonzero;"/>
                    </g>
                    <g transform="matrix(1.33886,-0.0727453,0.0727453,1.33886,-118.789,-27.8372)">
                        <path d="M352.332,157.164L352.667,157.164L350.728,152.356L348.762,157.164L349.097,157.164L349.72,155.631L351.708,155.631L352.332,157.164ZM349.832,155.352L350.721,153.14L351.596,155.352L349.832,155.352Z" style="fill-rule:nonzero;"/>
                    </g>
                    <g transform="matrix(1.3385,0.0791043,-0.0791043,1.3385,-94.8063,-81.0495)">
                        <path d="M356.428,156.941L356.763,156.941L354.825,152.133L352.858,156.941L353.193,156.941L353.816,155.408L355.805,155.408L356.428,156.941ZM353.929,155.129L354.818,152.917L355.693,155.129L353.929,155.129Z" style="fill-rule:nonzero;"/>
                    </g>
                    <g transform="matrix(1.32233,0.222024,-0.222024,1.32233,-66.538,-129.832)">
                        <path d="M359.793,157.197L358.268,154.992C358.373,154.992 358.597,154.985 358.842,154.902C359.423,154.706 359.625,154.23 359.625,153.768C359.625,153.404 359.507,153.018 359.143,152.766C358.835,152.557 358.513,152.529 358.156,152.529L357.484,152.529L357.484,157.197L357.791,157.197L357.791,154.992L357.931,154.992L359.444,157.197L359.793,157.197ZM357.791,152.808L358.177,152.808C358.359,152.808 358.695,152.836 358.891,152.948C359.073,153.046 359.304,153.291 359.304,153.761C359.304,154.363 358.905,154.713 358.24,154.713L357.791,154.713L357.791,152.808Z" style="fill-rule:nonzero;"/>
                    </g>
                    <g transform="matrix(1.29115,0.361627,-0.361627,1.29115,-33.1245,-175.897)">
                        <path d="M361.653,157.699C362.066,157.699 362.787,157.636 363.375,157.049C363.872,156.552 364.046,155.88 364.046,155.369C364.046,154.857 363.872,154.178 363.375,153.681C362.787,153.094 362.066,153.031 361.653,153.031L360.729,153.031L360.729,157.699L361.653,157.699ZM361.036,153.31L361.646,153.31C362.871,153.31 363.725,154.171 363.725,155.369C363.725,156.58 362.878,157.42 361.646,157.42L361.036,157.42L361.036,153.31Z" style="fill-rule:nonzero;"/>
                    </g>
                    <g transform="matrix(1.22014,0.555957,-0.555957,1.22014,24.7492,-237.636)">
                        <path d="M368.781,155.379C368.543,154.938 368.116,154.715 367.646,154.715C366.813,154.715 366.45,155.337 366.45,155.876C366.45,156.058 366.492,156.233 366.597,156.409C366.757,156.675 366.988,156.801 367.45,157.025C367.836,157.214 368.109,157.354 368.242,157.431C368.599,157.648 368.697,157.914 368.697,158.166C368.697,158.782 368.2,159.244 367.569,159.244C367.247,159.244 366.904,159.111 366.694,158.845C366.624,158.761 366.506,158.579 366.443,158.397L366.177,158.523C366.219,158.642 366.296,158.824 366.478,159.034C366.652,159.237 366.96,159.523 367.562,159.523C368.361,159.523 369.018,158.943 369.018,158.159C369.018,157.641 368.725,157.396 368.522,157.256C368.284,157.088 368.053,156.99 367.59,156.766C367.121,156.535 366.771,156.367 366.771,155.862C366.771,155.393 367.086,154.994 367.639,154.994C367.766,154.994 368.27,155.008 368.557,155.568L368.781,155.379Z" style="fill-rule:nonzero;"/>
                    </g>
                    <g transform="matrix(1.16475,0.664231,-0.664231,1.16475,63.8512,-270.312)">
                        <path d="M369.692,156.283L369.692,160.951L371.301,160.951L371.301,160.672L369.999,160.672L369.999,156.283L369.692,156.283Z" style="fill-rule:nonzero;"/>
                    </g>
                    <g transform="matrix(1.11205,0.749123,-0.749123,1.11205,98.2857,-294.441)">
                        <path d="M373.987,157.42L371.748,157.42L371.748,162.088L373.987,162.088L373.987,161.809L372.055,161.809L372.055,159.673L373.945,159.673L373.945,159.394L372.055,159.394L372.055,157.699L373.987,157.699L373.987,157.42Z" style="fill-rule:nonzero;"/>
                    </g>
                    <g transform="matrix(1.04638,0.838407,-0.838407,1.04638,139.446,-318.656)">
                        <path d="M376.641,159.517L376.641,159.238L373.912,159.238L373.912,159.517L375.123,159.517L375.123,163.906L375.43,163.906L375.43,159.517L376.641,159.517Z" style="fill-rule:nonzero;"/>
                    </g>
                    <g transform="matrix(0.96905,0.926705,-0.926705,0.96905,185.567,-340.524)">
                        <path d="M379.09,161.492L379.09,161.213L376.361,161.213L376.361,161.492L377.572,161.492L377.572,165.881L377.879,165.881L377.879,161.492L379.09,161.492Z" style="fill-rule:nonzero;"/>
                    </g>
                    <g transform="matrix(0.909241,0.985454,-0.985454,0.909241,220.731,-353.898)">
                        <rect x="378.994" y="163.251" width="0.307" height="4.668" style="fill-rule:nonzero;"/>
                    </g>
                    <g transform="matrix(0.808371,1.06976,-1.06976,0.808371,274.82,-369.491)">
                        <path d="M380.435,169.006L380.435,165.024L384.355,169.125L384.355,164.338L384.048,164.338L384.048,168.39L380.128,164.289L380.128,169.006L380.435,169.006Z" style="fill-rule:nonzero;"/>
                    </g>
                    <g transform="matrix(0.636735,1.18,-1.18,0.636735,366.094,-383.14)">
                        <path d="M385.873,171.432L387.525,171.432C387.511,171.733 387.399,172.118 387.217,172.398C386.965,172.784 386.391,173.19 385.593,173.19C384.389,173.19 383.507,172.251 383.507,171.083C383.507,169.892 384.417,168.94 385.614,168.94C386.195,168.94 386.657,169.185 386.951,169.43C387.077,169.535 387.266,169.724 387.399,169.948L387.644,169.752C387.455,169.486 387.28,169.318 387.084,169.164C386.72,168.884 386.279,168.661 385.621,168.661C384.263,168.661 383.186,169.682 383.186,171.069C383.186,172.461 384.228,173.469 385.6,173.469C386.314,173.469 386.944,173.211 387.357,172.686C387.742,172.195 387.833,171.579 387.833,171.153L385.873,171.153L385.873,171.432Z" style="fill-rule:nonzero;"/>
                    </g>
                </g>
                <g transform="matrix(0.745804,0,0,0.745804,39.666,570.468)">
                    <g transform="matrix(1.14575,0.696485,-0.696485,1.14575,114.01,-239.41)">
                        <path d="M332.202,226.307L332.509,226.307L332.509,221.639L331.614,221.639L331.474,221.918L332.202,221.918L332.202,226.307Z" style="fill-rule:nonzero;"/>
                    </g>
                    <g transform="matrix(1.19764,0.602913,-0.602913,1.19764,77.08,-221.635)">
                        <path d="M336.285,223.292L334.501,223.292L333.899,225.273C334.102,225.147 334.333,225.069 334.627,225.069C335.404,225.069 335.943,225.623 335.943,226.414C335.943,227.198 335.383,227.758 334.613,227.758C334.144,227.758 333.738,227.541 333.479,227.156L333.206,227.268C333.542,227.849 334.116,228.037 334.606,228.037C335.516,228.037 336.264,227.415 336.264,226.407C336.264,225.476 335.635,224.79 334.641,224.79C334.529,224.79 334.438,224.804 334.326,224.832L334.718,223.571L336.285,223.571L336.285,223.292Z" style="fill-rule:nonzero;"/>
                    </g>
                    <g transform="matrix(1.23934,0.511743,-0.511743,1.23934,43.6847,-202.467)">
                        <path d="M337.087,229.518C337.087,229.665 337.199,229.777 337.345,229.777C337.492,229.777 337.604,229.665 337.604,229.518C337.604,229.371 337.492,229.259 337.345,229.259C337.199,229.259 337.087,229.371 337.087,229.518Z" style="fill-rule:nonzero;"/>
                    </g>
                    <g transform="matrix(1.29059,0.363634,-0.363634,1.29059,-6.9457,-165.532)">
                        <path d="M342.97,226.975C342.733,226.534 342.305,226.311 341.836,226.311C341.003,226.311 340.64,226.933 340.64,227.472C340.64,227.654 340.682,227.829 340.786,228.004C340.947,228.27 341.178,228.396 341.64,228.62C342.025,228.809 342.298,228.949 342.431,229.026C342.789,229.243 342.887,229.509 342.887,229.761C342.887,230.378 342.389,230.84 341.759,230.84C341.437,230.84 341.094,230.707 340.884,230.441C340.814,230.356 340.695,230.174 340.633,229.992L340.367,230.118C340.409,230.237 340.486,230.42 340.668,230.63C340.842,230.833 341.15,231.119 341.752,231.119C342.55,231.119 343.208,230.539 343.208,229.754C343.208,229.236 342.915,228.991 342.712,228.851C342.473,228.683 342.242,228.585 341.78,228.361C341.311,228.13 340.961,227.962 340.961,227.458C340.961,226.989 341.276,226.59 341.829,226.59C341.955,226.59 342.459,226.604 342.747,227.164L342.97,226.975Z" style="fill-rule:nonzero;"/>
                    </g>
                    <g transform="matrix(1.32045,0.232926,-0.232926,1.32045,-46.9673,-128.884)">
                        <path d="M346.776,227.451L344.537,227.451L344.537,232.119L346.776,232.119L346.776,231.84L344.844,231.84L344.844,229.704L346.734,229.704L346.734,229.425L344.844,229.425L344.844,227.73L346.776,227.73L346.776,227.451Z" style="fill-rule:nonzero;"/>
                    </g>
                    <g transform="matrix(1.3362,0.111377,-0.111377,1.3362,-80.5114,-91.1395)">
                        <path d="M349.069,230.531C349.874,230.531 350.426,230.077 350.426,229.299C350.426,228.501 349.825,228.082 349.062,228.082L348.159,228.082L348.159,232.75L348.466,232.75L348.466,230.531L349.069,230.531ZM348.466,228.361L349.034,228.361C349.713,228.361 350.105,228.725 350.105,229.306C350.105,229.895 349.692,230.252 349.083,230.252L348.466,230.252L348.466,228.361Z" style="fill-rule:nonzero;"/>
                    </g>
                    <g transform="matrix(1.34082,0.00637826,-0.00637826,1.34082,-106.553,-55.7465)">
                        <path d="M353.843,228.641L353.843,228.362L351.114,228.362L351.114,228.641L352.325,228.641L352.325,233.03L352.632,233.03L352.632,228.641L353.843,228.641Z" style="fill-rule:nonzero;"/>
                    </g>
                    <g transform="matrix(1.33611,-0.112434,0.112434,1.33611,-132.573,-12.5699)">
                        <path d="M357.219,228.373L354.979,228.373L354.979,233.041L357.219,233.041L357.219,232.762L355.287,232.762L355.287,230.626L357.177,230.626L357.177,230.347L355.287,230.347L355.287,228.652L357.219,228.652L357.219,228.373Z" style="fill-rule:nonzero;"/>
                    </g>
                    <g transform="matrix(1.3102,-0.285007,0.285007,1.3102,-163.414,55.7146)">
                        <path d="M359.101,232.782L359.515,229.031L361.349,232.95C361.356,232.95 363.183,229.031 363.183,229.031L363.596,232.782L363.903,232.782L363.372,227.953L361.349,232.272L359.325,227.953L358.794,232.782L359.101,232.782Z" style="fill-rule:nonzero;"/>
                    </g>
                    <g transform="matrix(1.2552,-0.471506,0.471506,1.2552,-185.788,138.378)">
                        <path d="M365.615,231.173L366.895,231.173C367.742,231.173 368.344,230.684 368.344,229.865C368.344,229.263 367.988,228.794 367.379,228.696C367.687,228.507 367.924,228.178 367.924,227.674C367.924,226.974 367.449,226.505 366.636,226.505L365.615,226.505L365.615,231.173ZM365.922,226.784L366.517,226.784C366.762,226.784 367.064,226.798 367.295,226.981C367.449,227.107 367.61,227.338 367.61,227.709C367.61,228.031 367.491,228.269 367.302,228.423C367.099,228.591 366.902,228.619 366.664,228.619L365.922,228.619L365.922,226.784ZM365.922,228.898L366.65,228.898C367.169,228.898 367.4,228.975 367.526,229.032C367.875,229.193 368.023,229.48 368.023,229.9C368.023,230.117 367.973,230.39 367.722,230.614C367.407,230.894 367.022,230.894 366.706,230.894L365.922,230.894L365.922,228.898Z" style="fill-rule:nonzero;"/>
                    </g>
                    <g transform="matrix(1.20286,-0.59242,0.59242,1.20286,-193.212,196.724)">
                        <path d="M371.773,225.009L369.534,225.009L369.534,229.677L371.773,229.677L371.773,229.398L369.841,229.398L369.841,227.262L371.731,227.262L371.731,226.983L369.841,226.983L369.841,225.288L371.773,225.288L371.773,225.009Z" style="fill-rule:nonzero;"/>
                    </g>
                    <g transform="matrix(1.14312,-0.700796,0.700796,1.14312,-194.264,252.419)">
                        <path d="M375.15,228.041L373.624,225.836C373.729,225.836 373.953,225.829 374.199,225.745C374.779,225.55 374.982,225.073 374.982,224.611C374.982,224.247 374.863,223.862 374.5,223.61C374.192,223.401 373.869,223.373 373.512,223.373L372.841,223.373L372.841,228.041L373.148,228.041L373.148,225.836L373.288,225.836L374.8,228.041L375.15,228.041ZM373.148,223.652L373.533,223.652C373.715,223.652 374.051,223.68 374.248,223.792C374.43,223.89 374.661,224.135 374.661,224.604C374.661,225.207 374.262,225.557 373.596,225.557L373.148,225.557L373.148,223.652Z" style="fill-rule:nonzero;"/>
                    </g>
                </g>
                <g transform="matrix(8.09053,0,0,8.09053,-2347.81,-914.314)">
                    <path d="M326.711,202.766C326.767,202.895 326.911,203.575 326.951,203.719C327.071,204.063 327.351,204.558 327.815,204.558C328.111,204.558 328.761,204.292 329.028,203.848C329.088,203.747 328.904,203.308 328.916,203.433C328.938,203.654 328.618,203.779 328.335,203.759C328.079,203.741 327.871,203.607 327.775,203.343C327.583,202.863 327.487,202.374 327.343,201.863C327.311,201.703 327.151,201.519 326.919,201.535C326.423,201.583 325.871,202.63 325.495,202.782C325.303,202.863 325.335,202.662 325.335,202.526C325.327,202.319 325.415,201.575 325.391,201.423C325.367,201.343 325.247,201.207 325.159,201.215C324.831,201.279 324.632,201.599 324.608,201.823C324.608,202.574 324.664,203.183 324.592,203.911C324.584,204.063 324.584,204.279 324.831,204.271C325.279,204.247 325.639,203.319 325.975,202.911C326.095,202.766 326.271,202.582 326.431,202.55C326.551,202.542 326.671,202.614 326.711,202.766Z" style="fill-rule:nonzero;"/>
                    <path d="M329.815,203.902C329.799,203.83 329.775,203.774 329.767,203.71C329.879,203.67 330.004,203.617 330.117,203.566C330.467,203.41 330.534,203.379 330.674,203.274C331.012,203.022 331.351,202.63 331.568,202.43C331.712,202.294 332.487,201.478 332.655,201.279C332.719,201.207 332.727,201.175 332.727,201.103C332.727,201.023 332.631,200.975 332.551,200.975C332.279,200.975 332.04,201.247 331.88,201.406C331.151,202.142 330.639,202.95 329.711,203.366C329.663,203.038 329.647,202.702 329.647,202.35C329.647,201.302 329.679,200.079 329.791,199.063C329.799,198.943 329.711,198.839 329.535,198.839C329.271,198.839 329.04,199.063 329.008,199.279C328.864,199.975 328.8,200.623 328.8,201.358C328.8,202.094 328.848,202.822 328.928,203.542C328.96,203.966 329.167,204.702 329.759,204.702C329.951,204.702 329.975,204.662 329.959,204.51C329.959,204.27 329.879,204.118 329.815,203.902Z" style="fill-rule:nonzero;"/>
                </g>
                <g transform="matrix(1,0,0,1,-41.7114,514.4)">
                    <path d="M323.341,202.043L323.925,202.186L324.482,202.451L324.485,202.452L324.977,202.823L325.376,203.274L325.674,203.785L325.868,204.341L325.954,204.923L325.927,205.515L325.783,206.098L325.519,206.656L325.518,206.657L325.453,206.714L325.437,206.728L325.357,206.797L325.197,206.939L325.036,207.082L324.874,207.226L324.712,207.373L324.55,207.521L324.224,207.821L324.061,207.973L323.898,208.127L323.735,208.281L323.653,208.359L323.571,208.437L323.49,208.515L323.408,208.593L323.326,208.671L323.245,208.75L323.163,208.829L323.081,208.907L323.062,208.926L323.001,208.988L322.922,209.068L322.843,209.149L322.764,209.23L322.685,209.311L322.605,209.392L322.526,209.473L322.446,209.553L322.366,209.634L322.286,209.715L322.206,209.796L322.126,209.876L322.046,209.957L321.965,210.037L321.885,210.118L321.804,210.198L321.723,210.278L321.642,210.358L321.561,210.437L321.48,210.517L321.399,210.596L321.317,210.675L321.236,210.754L321.154,210.832L321.072,210.91L321.031,210.95L320.99,210.989L320.948,211.028L320.907,211.067L320.866,211.105L320.825,211.144L320.783,211.183L320.742,211.221L320.701,211.26L320.659,211.298L320.618,211.336L320.576,211.375L320.535,211.413L320.493,211.451L320.451,211.489L320.41,211.527L320.368,211.564L320.326,211.602L320.241,211.678L320.155,211.754L320.067,211.831L319.978,211.91L319.888,211.989L319.797,212.069L319.747,212.112L319.706,212.151L319.615,212.235L319.522,212.319L319.429,212.405L319.335,212.49L319.24,212.576L319.192,212.62L319.143,212.664L319.095,212.707L319.046,212.751L318.997,212.795L318.948,212.839L318.898,212.883L318.849,212.927L318.799,212.971L318.749,213.015L318.698,213.06L318.648,213.104L318.597,213.148L318.546,213.193L318.495,213.237L318.443,213.282L318.391,213.326L318.34,213.371L318.288,213.416L318.235,213.46L318.183,213.505L318.13,213.549L318.077,213.594L318.024,213.638L317.971,213.683L317.918,213.727L317.877,213.761L317.865,213.772L317.812,213.817L317.759,213.863L317.706,213.908L317.653,213.953L317.6,213.999L317.547,214.044L317.493,214.089L317.439,214.134L317.385,214.179L317.331,214.223L317.277,214.268L317.222,214.313L317.168,214.357L317.113,214.401L317.058,214.445L317.003,214.489L316.948,214.533L316.893,214.577L316.837,214.62L316.781,214.664L316.726,214.707L316.67,214.75L316.614,214.793L316.558,214.835L316.501,214.878L316.445,214.92L316.389,214.962L316.332,215.004L316.275,215.045L316.218,215.086L316.161,215.127L316.104,215.168L316.047,215.209L315.99,215.249L315.932,215.289L315.875,215.329L315.856,215.342L315.818,215.369L315.761,215.41L315.704,215.45L315.647,215.49L315.59,215.529L315.533,215.569L315.476,215.608L315.419,215.646L315.361,215.685L315.304,215.722L315.246,215.76L315.188,215.797L315.13,215.834L315.072,215.871L315.014,215.907L314.956,215.942L314.898,215.978L314.839,216.013L314.781,216.047L314.722,216.081L314.664,216.115L314.605,216.148L314.546,216.181L314.487,216.214L314.428,216.245L314.399,216.261L314.369,216.277L314.339,216.293L314.31,216.308L314.28,216.323L314.251,216.339L314.221,216.354L314.191,216.369L314.162,216.384L314.132,216.398L314.102,216.413L314.072,216.427L314.043,216.442L314.013,216.456L313.983,216.47L313.953,216.484L313.923,216.498L313.893,216.512L313.864,216.525L313.834,216.539L313.804,216.552L313.774,216.565L313.744,216.578L313.714,216.591L313.684,216.604L313.654,216.617L313.624,216.629L313.609,216.635L313.594,216.642L313.564,216.655L313.535,216.667L313.505,216.68L313.475,216.692L313.43,216.711L313.385,216.729L313.341,216.747L313.296,216.765L313.251,216.782L313.206,216.8L313.161,216.817L313.116,216.835L313.072,216.852L313.027,216.869L312.982,216.886L312.937,216.902L312.892,216.919L312.847,216.935L312.802,216.951L312.757,216.967L312.712,216.983L312.667,216.999L312.622,217.014L312.577,217.03L312.532,217.045L312.487,217.06L312.442,217.075L312.442,217.076L312.398,217.091L312.353,217.106L312.308,217.122L312.263,217.137L312.218,217.152L312.174,217.166L312.129,217.181L312.084,217.196L312.039,217.21L311.994,217.224L311.949,217.238L311.904,217.252L311.86,217.266L311.815,217.28L311.77,217.293L311.725,217.307L311.68,217.32L311.635,217.333L311.59,217.346L311.545,217.359L311.5,217.371L311.455,217.384L311.41,217.396L311.365,217.408L311.32,217.42L311.284,217.43L311.275,217.432L311.23,217.445L311.185,217.458L311.14,217.47L311.096,217.482L311.051,217.494L311.006,217.506L310.961,217.518L310.916,217.53L310.871,217.541L310.826,217.553L310.781,217.564L310.736,217.575L310.692,217.586L310.647,217.597L310.602,217.608L310.557,217.618L310.512,217.629L310.467,217.639L310.422,217.649L310.377,217.659L310.332,217.669L310.287,217.679L310.242,217.689L310.196,217.698L310.151,217.707L310.106,217.717L310.061,217.726L310.043,217.729L310.016,217.735L309.971,217.745L309.926,217.754L309.881,217.764L309.836,217.773L309.791,217.782L309.746,217.791L309.701,217.8L309.656,217.808L309.611,217.817L309.566,217.825L309.521,217.834L309.476,217.842L309.431,217.85L309.386,217.858L309.341,217.865L309.296,217.873L309.251,217.881L309.206,217.888L309.161,217.895L309.115,217.902L309.07,217.909L309.025,217.916L308.98,217.923L308.935,217.93L308.89,217.936L308.845,217.942L308.799,217.949L308.754,217.955L308.709,217.961L308.664,217.967L308.637,217.97L308.619,217.973L308.573,217.979L308.528,217.985L308.483,217.991L308.438,217.997L308.393,218.003L308.348,218.009L308.303,218.015L308.257,218.02L308.212,218.026L308.167,218.031L308.122,218.036L308.077,218.041L308.031,218.046L307.986,218.051L307.941,218.056L307.896,218.06L307.85,218.065L307.805,218.069L307.76,218.074L307.715,218.078L307.669,218.082L307.624,218.085L307.579,218.089L307.533,218.093L307.488,218.096L307.443,218.1L307.398,218.103L307.352,218.106L307.307,218.109L307.262,218.112L307.216,218.115L307.171,218.118L307.126,218.12L307.08,218.123L307.035,218.125L306.99,218.127L306.944,218.13L306.899,218.132L306.854,218.133L306.808,218.135L306.763,218.137L306.718,218.138L306.672,218.14L306.627,218.141L306.582,218.142L306.536,218.144L306.491,218.145L306.446,218.145L306.4,218.146L306.355,218.147L306.31,218.147L306.264,218.148L306.219,218.148L306.174,218.148L306.128,218.148L306.083,218.148L306.038,218.148L305.992,218.148L305.947,218.148L305.902,218.147L305.857,218.147L305.811,218.146L305.766,218.145L305.721,218.144L305.675,218.143L305.63,218.142L305.539,218.14L305.462,218.137L305.449,218.137L305.358,218.135L305.268,218.133L305.177,218.13L305.086,218.127L304.996,218.124L304.905,218.12L304.814,218.115L304.724,218.111L304.633,218.105L304.543,218.1L304.452,218.094L304.362,218.088L304.271,218.081L304.181,218.074L304.09,218.066L304,218.058L303.909,218.05L303.819,218.041L303.729,218.032L303.638,218.023L303.548,218.013L303.458,218.003L303.368,217.992L303.278,217.981L303.187,217.97L303.097,217.958L303.007,217.946L302.917,217.933L302.827,217.92L302.738,217.907L302.648,217.894L302.558,217.88L302.468,217.865L302.379,217.851L302.289,217.835L302.2,217.82L302.11,217.804L302.065,217.796L302.02,217.789L301.931,217.773L301.841,217.758L301.752,217.742L301.662,217.725L301.573,217.709L301.483,217.692L301.394,217.674L301.305,217.657L301.216,217.639L301.127,217.62L301.037,217.602L300.948,217.582L300.86,217.563L300.771,217.543L300.682,217.523L300.593,217.503L300.505,217.483L300.416,217.462L300.328,217.44L300.239,217.419L300.151,217.397L300.063,217.375L299.975,217.352L299.887,217.329L299.799,217.306L299.711,217.283L299.623,217.259L299.535,217.235L299.448,217.21L299.36,217.186L299.273,217.161L299.185,217.135L299.098,217.11L299.011,217.084L298.924,217.058L298.837,217.031L298.756,217.006L298.75,217.005L298.663,216.979L298.576,216.953L298.489,216.927L298.402,216.9L298.316,216.873L298.229,216.846L298.142,216.818L298.056,216.79L297.969,216.762L297.883,216.734L297.797,216.706L297.711,216.677L297.625,216.648L297.539,216.618L297.454,216.589L297.368,216.559L297.282,216.529L297.197,216.498L297.112,216.467L297.027,216.437L296.942,216.405L296.857,216.374L296.772,216.342L296.688,216.31L296.603,216.278L296.519,216.246L296.435,216.213L296.351,216.18L296.267,216.147L296.183,216.114L296.099,216.08L296.016,216.046L295.932,216.012L295.849,215.977L295.766,215.943L295.683,215.908L295.6,215.873L295.518,215.838L295.435,215.802L295.353,215.766L295.271,215.73L295.189,215.694L295.107,215.658L295.025,215.621L294.944,215.584L294.862,215.547L294.781,215.509L294.7,215.472L294.619,215.434L294.538,215.396L294.458,215.358L294.378,215.319L294.297,215.281L294.217,215.242L294.138,215.203L294.058,215.163L293.978,215.124L293.899,215.084L293.82,215.044L293.741,215.004L293.662,214.963L293.584,214.923L293.505,214.882L293.438,214.847L293.427,214.841L293.348,214.801L293.27,214.76L293.191,214.72L293.113,214.679L293.035,214.638L292.957,214.596L292.88,214.555L292.802,214.513L292.725,214.471L292.648,214.429L292.571,214.387L292.495,214.345L292.418,214.302L292.342,214.259L292.266,214.216L292.19,214.173L292.115,214.129L292.039,214.086L291.964,214.042L291.889,213.998L291.814,213.954L291.74,213.909L291.665,213.865L291.591,213.82L291.517,213.775L291.444,213.73L291.403,213.704L291.37,213.684L291.299,213.642L291.298,213.641L290.953,213.374L290.696,213.047L290.455,212.267L290.583,211.404L291.086,210.56L291.087,210.559L291.088,210.558L291.86,209.93L292.698,209.676L293.501,209.806L293.858,210.017L294.168,210.326L294.215,210.386L294.234,210.411L294.259,210.442L294.303,210.498L294.348,210.554L294.394,210.61L294.439,210.665L294.486,210.721L294.532,210.776L294.579,210.832L294.626,210.887L294.674,210.943L294.722,210.998L294.77,211.054L294.818,211.109L294.867,211.164L294.917,211.219L294.967,211.274L295.017,211.329L295.067,211.384L295.118,211.439L295.169,211.494L295.22,211.549L295.272,211.603L295.324,211.658L295.377,211.712L295.43,211.766L295.483,211.821L295.536,211.875L295.544,211.883L295.591,211.928L295.645,211.981L295.701,212.033L295.756,212.086L295.812,212.139L295.868,212.191L295.925,212.243L295.981,212.296L296.038,212.348L296.096,212.4L296.153,212.451L296.211,212.503L296.27,212.554L296.328,212.606L296.387,212.657L296.447,212.708L296.506,212.759L296.566,212.81L296.626,212.86L296.686,212.911L296.747,212.961L296.808,213.011L296.869,213.061L296.931,213.111L296.993,213.16L297.055,213.21L297.117,213.259L297.18,213.308L297.243,213.357L297.306,213.405L297.37,213.454L297.434,213.502L297.498,213.55L297.562,213.598L297.627,213.646L297.692,213.693L297.757,213.74L297.823,213.787L297.889,213.834L297.955,213.881L298.021,213.927L298.087,213.973L298.154,214.019L298.221,214.065L298.289,214.111L298.356,214.156L298.424,214.201L298.492,214.246L298.56,214.29L298.629,214.335L298.698,214.379L298.767,214.423L298.836,214.466L298.906,214.51L298.975,214.553L299.045,214.595L299.116,214.638L299.186,214.68L299.257,214.722L299.328,214.764L299.399,214.806L299.471,214.847L299.542,214.888L299.619,214.931L299.687,214.968L299.76,215.007L299.833,215.046L299.906,215.084L299.979,215.122L300.053,215.16L300.127,215.197L300.201,215.235L300.275,215.272L300.35,215.308L300.424,215.345L300.499,215.381L300.574,215.417L300.649,215.452L300.725,215.487L300.8,215.522L300.876,215.557L300.952,215.591L301.028,215.625L301.105,215.659L301.181,215.692L301.258,215.725L301.335,215.758L301.412,215.79L301.489,215.822L301.566,215.854L301.644,215.885L301.722,215.916L301.8,215.947L301.878,215.977L301.956,216.007L302.034,216.037L302.113,216.066L302.192,216.095L302.271,216.124L302.35,216.152L302.429,216.18L302.468,216.194L302.508,216.207L302.588,216.233L302.668,216.259L302.748,216.284L302.829,216.31L302.909,216.334L302.989,216.358L303.07,216.382L303.151,216.406L303.232,216.429L303.313,216.452L303.394,216.474L303.475,216.497L303.556,216.518L303.638,216.54L303.72,216.561L303.801,216.581L303.883,216.601L303.965,216.621L304.047,216.641L304.129,216.66L304.212,216.678L304.294,216.696L304.377,216.714L304.459,216.732L304.542,216.749L304.625,216.765L304.708,216.782L304.791,216.797L304.874,216.813L304.957,216.828L305.041,216.842L305.124,216.857L305.208,216.87L305.291,216.884L305.375,216.897L305.459,216.909L305.543,216.921L305.554,216.923L305.627,216.931L305.711,216.941L305.753,216.946L305.795,216.95L305.837,216.955L305.879,216.959L305.922,216.963L305.964,216.968L306.006,216.972L306.048,216.975L306.09,216.979L306.133,216.983L306.175,216.987L306.217,216.99L306.26,216.993L306.302,216.997L306.344,217L306.386,217.003L306.429,217.006L306.471,217.009L306.514,217.011L306.556,217.014L306.598,217.017L306.641,217.019L306.683,217.021L306.726,217.023L306.768,217.026L306.811,217.027L306.853,217.029L306.896,217.031L306.938,217.033L306.981,217.034L307.023,217.036L307.066,217.037L307.108,217.038L307.151,217.039L307.193,217.04L307.236,217.041L307.278,217.041L307.321,217.042L307.364,217.043L307.406,217.043L307.449,217.043L307.492,217.043L307.534,217.043L307.577,217.043L307.62,217.043L307.662,217.043L307.705,217.042L307.748,217.042L307.79,217.041L307.833,217.04L307.876,217.039L307.918,217.038L307.961,217.037L308.004,217.036L308.047,217.034L308.089,217.033L308.132,217.031L308.175,217.029L308.218,217.027L308.26,217.025L308.303,217.023L308.346,217.021L308.389,217.019L308.432,217.016L308.474,217.013L308.517,217.011L308.534,217.01L308.56,217.007L308.603,217.004L308.645,217L308.688,216.996L308.731,216.992L308.774,216.987L308.816,216.983L308.859,216.978L308.902,216.974L308.945,216.969L308.987,216.964L309.03,216.959L309.073,216.954L309.116,216.949L309.158,216.943L309.201,216.938L309.244,216.932L309.286,216.927L309.329,216.921L309.372,216.915L309.415,216.909L309.457,216.902L309.5,216.896L309.543,216.889L309.585,216.883L309.628,216.876L309.671,216.869L309.714,216.862L309.756,216.855L309.799,216.848L309.842,216.84L309.867,216.836L309.884,216.833L309.927,216.824L309.969,216.816L310.012,216.807L310.054,216.798L310.097,216.789L310.139,216.78L310.182,216.771L310.224,216.762L310.267,216.752L310.309,216.743L310.351,216.733L310.394,216.723L310.436,216.713L310.479,216.703L310.521,216.693L310.563,216.683L310.606,216.672L310.648,216.662L310.69,216.651L310.733,216.64L310.775,216.629L310.817,216.618L310.859,216.607L310.902,216.595L310.944,216.584L310.986,216.572L311.028,216.56L311.037,216.558L311.07,216.548L311.112,216.535L311.154,216.522L311.196,216.509L311.238,216.495L311.28,216.482L311.322,216.468L311.364,216.455L311.405,216.441L311.447,216.427L311.489,216.413L311.531,216.398L311.573,216.384L311.614,216.369L311.656,216.355L311.698,216.34L311.739,216.325L311.781,216.31L311.822,216.295L311.864,216.279L311.906,216.264L311.947,216.248L311.989,216.232L312.03,216.217L312.071,216.201L312.112,216.185L312.113,216.184L312.154,216.167L312.195,216.15L312.236,216.133L312.277,216.115L312.318,216.098L312.359,216.08L312.4,216.062L312.441,216.044L312.482,216.026L312.523,216.008L312.564,215.99L312.605,215.971L312.646,215.952L312.686,215.934L312.727,215.915L312.768,215.895L312.808,215.876L312.849,215.857L312.89,215.837L312.93,215.818L312.971,215.798L313.011,215.778L313.052,215.758L313.077,215.745L313.101,215.733L313.126,215.72L313.151,215.707L313.164,215.7L313.176,215.694L313.2,215.68L313.225,215.666L313.249,215.652L313.274,215.638L313.298,215.624L313.323,215.609L313.347,215.595L313.372,215.58L313.396,215.565L313.421,215.55L313.445,215.535L313.47,215.52L313.494,215.505L313.519,215.489L313.543,215.474L313.567,215.458L313.592,215.442L313.616,215.426L313.641,215.41L313.665,215.394L313.689,215.378L313.714,215.361L313.738,215.345L313.762,215.328L313.787,215.311L313.811,215.294L313.835,215.278L313.884,215.243L313.932,215.208L313.98,215.173L314.029,215.137L314.077,215.101L314.125,215.064L314.173,215.027L314.221,214.99L314.269,214.952L314.317,214.914L314.365,214.875L314.413,214.836L314.46,214.797L314.508,214.757L314.555,214.717L314.602,214.676L314.65,214.635L314.697,214.594L314.744,214.552L314.791,214.51L314.838,214.468L314.884,214.425L314.931,214.382L314.977,214.339L315.008,214.31L315.023,214.295L315.068,214.25L315.113,214.204L315.158,214.158L315.203,214.112L315.248,214.066L315.292,214.019L315.336,213.973L315.38,213.925L315.424,213.878L315.468,213.83L315.512,213.783L315.555,213.735L315.599,213.686L315.642,213.638L315.685,213.589L315.728,213.54L315.77,213.491L315.813,213.442L315.855,213.392L315.897,213.342L315.939,213.293L315.981,213.243L316.023,213.192L316.064,213.142L316.105,213.092L316.146,213.041L316.187,212.99L316.228,212.939L316.268,212.888L316.309,212.837L316.349,212.786L316.389,212.735L316.428,212.684L316.468,212.632L316.507,212.581L316.546,212.529L316.556,212.517L316.584,212.477L316.622,212.424L316.659,212.371L316.696,212.318L316.733,212.266L316.77,212.213L316.807,212.16L316.843,212.107L316.879,212.054L316.915,212.001L316.95,211.948L316.986,211.895L317.021,211.843L317.056,211.79L317.09,211.737L317.125,211.684L317.159,211.632L317.193,211.579L317.226,211.526L317.26,211.474L317.293,211.422L317.326,211.369L317.359,211.317L317.392,211.265L317.424,211.213L317.456,211.161L317.487,211.11L317.551,211.006L317.613,210.903L317.674,210.802L317.734,210.7L317.793,210.6L317.82,210.553L317.849,210.499L317.904,210.398L317.957,210.298L318.009,210.199L318.061,210.1L318.111,210.003L318.16,209.908L318.182,209.863L318.204,209.819L318.226,209.774L318.248,209.73L318.27,209.685L318.291,209.64L318.313,209.595L318.334,209.55L318.355,209.505L318.376,209.46L318.397,209.414L318.418,209.369L318.439,209.323L318.46,209.278L318.48,209.232L318.501,209.186L318.521,209.14L318.541,209.094L318.582,209.001L318.621,208.908L318.661,208.814L318.7,208.721L318.739,208.626L318.777,208.532L318.815,208.437L318.853,208.341L318.89,208.246L318.927,208.149L318.964,208.053L319,207.956L319.036,207.859L319.072,207.762L319.108,207.664L319.143,207.566L319.178,207.467L319.212,207.369L319.247,207.27L319.281,207.17L319.315,207.071L319.348,206.971L319.382,206.871L319.415,206.77L319.44,206.693L319.447,206.669L319.477,206.566L319.507,206.463L319.536,206.36L319.565,206.256L319.594,206.153L319.623,206.048L319.651,205.944L319.679,205.84L319.736,205.629L319.791,205.418L319.845,205.206L319.953,204.78L320.007,204.565L320.06,204.35L320.114,204.135L320.169,203.918L320.223,203.703L320.251,203.594L320.257,203.572L320.278,203.486L320.279,203.485L320.65,202.992L321.1,202.594L321.612,202.296L322.167,202.101L322.749,202.016L323.341,202.043Z"/>
                </g>
                <g transform="matrix(1,0,0,1,-16.7114,174.4)">
                    <path d="M381.418,550.484L381.462,550.484L381.507,550.484L381.552,550.485L381.596,550.485L381.641,550.486L381.686,550.487L381.731,550.488L381.776,550.489L381.821,550.49L381.866,550.491L381.911,550.493L381.957,550.494L382.002,550.496L382.047,550.498L382.093,550.5L382.138,550.502L382.184,550.504L382.23,550.506L382.276,550.509L382.321,550.511L382.367,550.514L382.413,550.517L382.459,550.52L382.505,550.523L382.552,550.526L382.598,550.53L382.644,550.533L382.691,550.537L382.737,550.54L382.784,550.544L382.83,550.548L382.877,550.552L382.924,550.557L383.018,550.565L383.065,550.57L383.112,550.575L383.159,550.579L383.206,550.584L383.253,550.589L383.301,550.594L383.348,550.6L383.396,550.605L383.443,550.611L383.491,550.616L383.539,550.622L383.586,550.628L383.634,550.634L383.682,550.64L383.73,550.647L383.778,550.653L383.827,550.66L383.875,550.667L383.923,550.674L383.972,550.681L384.02,550.688L384.069,550.695L384.117,550.703L384.166,550.71L384.215,550.718L384.263,550.726L384.312,550.734L384.361,550.742L384.41,550.75L384.46,550.758L384.509,550.767L384.558,550.776L384.607,550.785L384.657,550.794L384.706,550.803L384.756,550.812L384.806,550.821L384.855,550.831L384.905,550.84L384.955,550.85L385.005,550.86L385.055,550.87L385.105,550.881L385.155,550.891L385.206,550.901L385.256,550.912L385.307,550.923L385.357,550.934L385.408,550.945L385.458,550.956L385.509,550.967L385.56,550.979L385.611,550.991L385.662,551.002L385.714,551.015L385.752,551.024L385.792,551.034L385.833,551.044L385.874,551.055L385.916,551.066L385.958,551.077L386.001,551.088L386.133,551.123L386.225,551.148L386.319,551.174L386.415,551.201L386.514,551.229L386.616,551.258L386.72,551.288L386.826,551.319L386.934,551.351L387.045,551.384L387.157,551.418L387.272,551.453L387.388,551.488L387.506,551.525L387.626,551.562L387.747,551.6L387.869,551.638L387.993,551.678L388.118,551.718L388.244,551.758L388.371,551.799L388.498,551.841L388.627,551.883L388.756,551.926L388.885,551.969L389.015,552.013L389.145,552.057L389.275,552.101L389.405,552.146L389.535,552.191L389.664,552.236L389.794,552.282L389.923,552.327L390.051,552.373L390.179,552.419L390.305,552.465L390.431,552.512L390.556,552.558L390.68,552.604L390.803,552.651L390.923,552.697L390.984,552.72L391.044,552.744L391.104,552.767L391.163,552.79L391.221,552.813L391.28,552.837L391.338,552.86L391.395,552.883L391.452,552.906L391.509,552.929L391.565,552.953L391.621,552.976L391.676,552.999L391.731,553.022L391.785,553.045L391.839,553.069L391.893,553.092L391.946,553.115L391.999,553.139L392.051,553.162L392.102,553.185L392.154,553.209L392.204,553.232L392.255,553.256L392.305,553.28L392.354,553.304L392.404,553.328L392.453,553.352L392.501,553.377L392.549,553.402L392.598,553.427L392.645,553.452L392.693,553.478L392.741,553.504L392.788,553.531L392.836,553.558L392.884,553.587L392.923,553.61L393.318,553.903L393.63,554.264L393.991,555.125L393.982,556.081L393.583,557.019L393.583,557.02L393.582,557.021L392.834,557.783L391.942,558.163L391.017,558.137L390.578,557.966L390.173,557.686L390.172,557.685L390.156,557.67L390.147,557.661L390.137,557.651L390.124,557.639L390.115,557.631L390.109,557.627L390.093,557.613L390.075,557.598L390.055,557.582L390.034,557.566L390.011,557.548L389.986,557.53L389.961,557.512L389.934,557.492L389.905,557.472L389.876,557.452L389.845,557.43L389.814,557.409L389.781,557.386L389.747,557.364L389.712,557.341L389.676,557.317L389.639,557.293L389.601,557.269L389.562,557.244L389.523,557.219L389.482,557.193L389.441,557.168L389.399,557.141L389.357,557.115L389.313,557.088L389.269,557.061L389.224,557.034L389.178,557.007L389.132,556.979L389.086,556.951L389.038,556.923L388.99,556.894L388.943,556.866L388.843,556.808L388.743,556.75L388.64,556.691L388.536,556.631L388.431,556.572L388.324,556.511L388.216,556.451L388.106,556.39L387.996,556.33L387.885,556.269L387.774,556.208L387.662,556.147L387.549,556.086L387.437,556.026L387.324,555.966L387.211,555.906L387.098,555.847L386.986,555.788L386.874,555.729L386.762,555.671L386.652,555.614L386.542,555.557L386.433,555.502L386.325,555.447L386.218,555.393L386.113,555.34L386.009,555.288L385.907,555.237L385.807,555.187L385.708,555.139L385.612,555.091L385.518,555.045L385.426,555.001L385.337,554.958L385.25,554.917L385.167,554.877L385.086,554.839L385.009,554.803L384.935,554.769L384.865,554.736L384.797,554.706L384.767,554.692L384.736,554.678L384.707,554.665L384.679,554.652L384.652,554.64L384.626,554.629L384.602,554.618L384.578,554.608L384.539,554.591L384.498,554.575L384.458,554.558L384.418,554.542L384.378,554.526L384.338,554.51L384.298,554.494L384.259,554.478L384.219,554.462L384.179,554.447L384.14,554.431L384.1,554.416L384.061,554.401L384.021,554.386L383.982,554.371L383.942,554.356L383.903,554.342L383.864,554.327L383.825,554.313L383.786,554.299L383.747,554.285L383.708,554.271L383.669,554.257L383.63,554.243L383.592,554.23L383.553,554.216L383.514,554.203L383.476,554.19L383.437,554.177L383.399,554.164L383.36,554.151L383.322,554.138L383.284,554.126L383.245,554.113L383.207,554.101L383.169,554.089L383.131,554.077L383.093,554.065L383.055,554.053L383.017,554.041L382.979,554.03L382.942,554.018L382.904,554.007L382.866,553.996L382.829,553.985L382.791,553.974L382.754,553.963L382.716,553.952L382.679,553.942L382.641,553.931L382.604,553.921L382.567,553.911L382.53,553.9L382.493,553.89L382.455,553.881L382.418,553.871L382.409,553.868L382.381,553.861L382.345,553.852L382.308,553.843L382.271,553.834L382.234,553.825L382.197,553.816L382.161,553.807L382.124,553.798L382.087,553.79L382.051,553.781L382.014,553.773L381.978,553.765L381.942,553.757L381.905,553.749L381.869,553.741L381.833,553.733L381.796,553.725L381.76,553.718L381.724,553.71L381.688,553.703L381.652,553.696L381.616,553.689L381.58,553.682L381.544,553.675L381.509,553.668L381.473,553.662L381.437,553.655L381.401,553.649L381.366,553.642L381.33,553.636L381.295,553.63L381.259,553.624L381.224,553.618L381.188,553.612L381.153,553.607L381.118,553.601L381.082,553.596L381.047,553.59L381.012,553.585L380.977,553.58L380.942,553.575L380.907,553.57L380.871,553.565L380.836,553.56L380.802,553.556L380.767,553.551L380.732,553.547L380.697,553.542L380.662,553.538L380.627,553.534L380.593,553.53L380.558,553.526L380.523,553.522L380.489,553.519L380.454,553.515L380.42,553.512L380.385,553.508L380.351,553.505L380.316,553.502L380.283,553.499L380.213,553.493L380.145,553.487L380.076,553.482L380.008,553.477L379.94,553.473L379.872,553.469L379.804,553.466L379.736,553.462L379.669,553.46L379.601,553.457L379.534,553.455L379.467,553.454L379.4,553.452L379.333,553.452L379.266,553.451L379.199,553.451L379.133,553.451L379.066,553.452L379,553.453L378.933,553.454L378.867,553.456L378.801,553.458L378.735,553.46L378.669,553.463L378.603,553.466L378.537,553.47L378.472,553.473L378.406,553.478L378.341,553.482L378.275,553.487L378.21,553.492L378.145,553.498L378.08,553.504L378.015,553.51L377.95,553.517L377.885,553.524L377.82,553.531L377.755,553.539L377.69,553.546L377.626,553.555L377.561,553.563L377.497,553.572L377.432,553.582L377.368,553.591L377.304,553.601L377.239,553.611L377.175,553.622L377.111,553.633L377.047,553.644L376.983,553.655L376.919,553.667L376.855,553.679L376.791,553.692L376.727,553.705L376.664,553.718L376.6,553.731L376.536,553.745L376.473,553.759L376.409,553.773L376.346,553.788L376.282,553.803L376.219,553.818L376.155,553.833L376.092,553.849L376.029,553.865L375.965,553.882L375.902,553.898L375.839,553.915L375.776,553.932L375.713,553.95L375.65,553.968L375.586,553.986L375.523,554.004L375.46,554.023L375.397,554.042L375.335,554.061L375.322,554.065L375.272,554.081L375.209,554.101L375.146,554.121L375.084,554.142L375.021,554.163L374.959,554.185L374.896,554.206L374.834,554.228L374.771,554.25L374.709,554.272L374.646,554.295L374.584,554.318L374.522,554.341L374.459,554.364L374.397,554.388L374.335,554.411L374.272,554.435L374.21,554.46L374.148,554.484L374.086,554.509L374.024,554.534L373.961,554.559L373.899,554.584L373.837,554.61L373.775,554.636L373.713,554.662L373.651,554.688L373.589,554.715L373.527,554.742L373.465,554.769L373.402,554.796L373.34,554.823L373.278,554.851L373.216,554.878L373.154,554.906L373.092,554.935L373.03,554.963L372.968,554.991L372.906,555.02L372.844,555.049L372.782,555.078L372.72,555.108L372.659,555.137L372.597,555.167L372.535,555.197L372.473,555.227L372.411,555.257L372.349,555.287L372.287,555.318L372.225,555.348L372.163,555.379L372.101,555.41L372.039,555.441L371.977,555.473L371.915,555.504L371.853,555.536L371.791,555.568L371.729,555.6L371.667,555.632L371.605,555.664L371.543,555.696L371.481,555.729L371.419,555.761L371.357,555.794L371.233,555.86L371.109,555.926L370.985,555.993L370.86,556.061L370.736,556.128L370.611,556.197L370.487,556.265L370.362,556.334L370.238,556.404L370.113,556.473L369.988,556.543L369.863,556.613L369.738,556.684L369.674,556.72L369.614,556.756L369.491,556.831L369.244,556.98L368.996,557.129L368.748,557.28L368.499,557.43L368.25,557.581L368.124,557.656L367.999,557.732L367.874,557.807L367.748,557.883L367.65,557.941L367.552,557.999L367.455,558.057L367.359,558.114L367.338,558.126L367.264,558.17L367.17,558.226L367.076,558.282L366.983,558.337L366.891,558.391L366.8,558.444L366.709,558.497L366.619,558.549L366.53,558.601L366.441,558.651L366.353,558.701L366.265,558.751L366.179,558.799L366.093,558.847L366.007,558.895L365.922,558.941L365.838,558.987L365.754,559.033L365.671,559.077L365.589,559.121L365.507,559.165L365.426,559.207L365.346,559.249L365.266,559.291L365.186,559.331L365.107,559.372L365.029,559.411L364.952,559.45L364.874,559.488L364.798,559.525L364.722,559.562L364.647,559.598L364.572,559.634L364.498,559.669L364.424,559.703L364.351,559.736L364.278,559.769L364.206,559.802L364.134,559.833L364.063,559.864L363.993,559.895L363.922,559.925L363.853,559.954L363.784,559.982L363.715,560.01L363.647,560.037L363.58,560.064L363.56,560.072L363.513,560.09L363.446,560.116L363.38,560.142L363.315,560.166L363.249,560.19L363.185,560.213L363.121,560.236L363.057,560.258L363.025,560.269L362.993,560.28L362.962,560.29L362.931,560.301L362.899,560.311L362.868,560.321L362.837,560.331L362.806,560.341L362.775,560.35L362.744,560.36L362.714,560.369L362.683,560.378L362.653,560.387L362.622,560.396L362.592,560.405L362.562,560.413L362.532,560.422L362.502,560.43L362.472,560.438L362.442,560.446L362.412,560.454L362.383,560.461L362.353,560.469L362.324,560.476L362.295,560.483L362.265,560.491L362.236,560.497L362.207,560.504L362.178,560.511L362.15,560.517L362.121,560.523L362.092,560.53L362.064,560.536L362.035,560.541L362.007,560.547L361.978,560.553L361.95,560.558L361.922,560.563L361.894,560.568L361.866,560.573L361.838,560.578L361.81,560.583L361.783,560.587L361.755,560.591L361.728,560.596L361.7,560.6L361.673,560.604L361.645,560.607L361.618,560.611L361.591,560.614L361.564,560.618L361.537,560.621L361.51,560.624L361.483,560.627L361.457,560.629L361.43,560.632L361.404,560.634L361.377,560.636L361.351,560.639L361.324,560.64L361.298,560.642L361.272,560.644L361.246,560.645L361.22,560.647L361.194,560.648L361.168,560.649L361.142,560.65L361.116,560.651L361.091,560.651L361.065,560.652L361.04,560.652L361.014,560.652L360.989,560.652L360.963,560.652L360.938,560.652L360.913,560.652L360.888,560.651L360.863,560.65L360.838,560.65L360.813,560.649L360.788,560.647L360.764,560.646L360.739,560.645L360.714,560.643L360.69,560.641L360.665,560.64L360.641,560.638L360.617,560.635L360.592,560.633L360.568,560.631L360.556,560.629L360.544,560.652L360.523,560.69L360.502,560.727L360.48,560.765L360.458,560.802L360.436,560.84L360.414,560.877L360.392,560.915L360.369,560.952L360.346,560.989L360.322,561.026L360.298,561.063L360.274,561.1L360.25,561.137L360.225,561.174L360.2,561.211L360.175,561.248L360.149,561.284L360.124,561.321L360.097,561.357L360.071,561.393L360.044,561.43L360.017,561.466L359.99,561.502L359.962,561.537L359.934,561.573L359.905,561.609L359.877,561.644L359.848,561.68L359.818,561.715L359.789,561.75L359.758,561.785L359.728,561.82L359.697,561.855L359.666,561.889L359.635,561.924L359.603,561.958L359.571,561.992L359.539,562.026L359.506,562.06L359.473,562.093L359.44,562.127L359.406,562.16L359.372,562.193L359.338,562.226L359.303,562.259L359.268,562.292L359.232,562.324L359.197,562.356L359.183,562.368L359.161,562.389L359.125,562.422L359.089,562.455L359.053,562.488L359.016,562.52L358.979,562.552L358.942,562.584L358.904,562.616L358.866,562.648L358.827,562.679L358.788,562.71L358.749,562.741L358.709,562.772L358.669,562.803L358.628,562.833L358.587,562.863L358.546,562.893L358.504,562.923L358.462,562.952L358.42,562.982L358.377,563.011L358.334,563.039L358.29,563.068L358.247,563.096L358.202,563.124L358.157,563.152L358.112,563.179L358.067,563.207L358.021,563.234L357.975,563.26L357.928,563.287L357.881,563.313L357.833,563.339L357.786,563.364L357.737,563.39L357.689,563.415L357.64,563.439L357.59,563.464L357.54,563.488L357.49,563.512L357.44,563.536L357.389,563.559L357.337,563.582L357.285,563.604L357.233,563.627L357.181,563.649L357.128,563.67L357.074,563.692L357.021,563.713L356.966,563.734L356.912,563.754L356.857,563.774L356.802,563.794L356.746,563.813L356.69,563.832L356.633,563.851L356.576,563.869L356.519,563.887L356.461,563.905L356.404,563.922L356.355,563.937L356.306,563.95L356.258,563.964L356.21,563.978L356.162,563.991L356.113,564.004L356.065,564.016L356.016,564.029L355.968,564.041L355.92,564.053L355.871,564.064L355.823,564.076L355.774,564.087L355.726,564.098L355.678,564.109L355.629,564.119L355.581,564.129L355.532,564.139L355.484,564.149L355.435,564.158L355.387,564.168L355.338,564.177L355.29,564.185L355.241,564.194L355.193,564.202L355.144,564.21L355.096,564.218L355.047,564.226L354.999,564.233L354.95,564.24L354.901,564.247L354.853,564.254L354.804,564.26L354.756,564.266L354.707,564.272L354.659,564.278L354.627,564.282L354.61,564.284L354.562,564.289L354.513,564.295L354.465,564.3L354.416,564.305L354.368,564.31L354.32,564.314L354.271,564.319L354.223,564.323L354.174,564.327L354.126,564.33L354.077,564.334L354.029,564.337L353.98,564.34L353.932,564.343L353.884,564.345L353.835,564.348L353.787,564.35L353.739,564.352L353.69,564.354L353.642,564.355L353.594,564.357L353.545,564.358L353.497,564.359L353.449,564.359L353.4,564.36L353.352,564.36L353.304,564.36L353.256,564.36L353.208,564.36L353.159,564.359L353.111,564.358L353.063,564.357L353.015,564.356L352.967,564.355L352.919,564.353L352.871,564.352L352.823,564.35L352.775,564.348L352.727,564.345L352.679,564.343L352.631,564.34L352.583,564.337L352.535,564.334L352.487,564.331L352.44,564.328L352.392,564.324L352.344,564.32L352.296,564.316L352.249,564.312L352.201,564.308L352.153,564.303L352.106,564.298L352.058,564.293L352.011,564.288L351.963,564.283L351.916,564.278L351.868,564.272L351.821,564.266L351.774,564.26L351.726,564.254L351.679,564.248L351.632,564.241L351.585,564.235L351.537,564.228L351.49,564.221L351.443,564.214L351.396,564.207L351.349,564.199L351.302,564.191L351.255,564.184L351.208,564.176L351.161,564.168L351.114,564.159L351.068,564.151L351.021,564.142L350.974,564.134L350.928,564.125L350.881,564.116L350.834,564.106L350.788,564.097L350.741,564.087L350.695,564.078L350.648,564.068L350.602,564.058L350.556,564.048L350.509,564.038L350.463,564.027L350.417,564.017L350.371,564.006L350.325,563.995L350.279,563.984L350.226,563.971L350.174,563.958L350.122,563.945L350.069,563.932L350.017,563.919L349.965,563.905L349.913,563.891L349.861,563.877L349.809,563.863L349.757,563.849L349.705,563.835L349.654,563.82L349.602,563.805L349.55,563.79L349.499,563.775L349.447,563.76L349.396,563.744L349.345,563.729L349.294,563.713L349.242,563.697L349.191,563.681L349.14,563.665L349.089,563.649L349.038,563.632L348.988,563.615L348.937,563.599L348.886,563.582L348.836,563.565L348.785,563.547L348.735,563.53L348.684,563.512L348.634,563.495L348.584,563.477L348.534,563.459L348.483,563.441L348.434,563.423L348.403,563.412L348.384,563.405L348.334,563.386L348.284,563.368L348.234,563.349L348.184,563.331L348.135,563.312L348.085,563.293L348.036,563.274L347.986,563.255L347.937,563.236L347.888,563.216L347.839,563.197L347.79,563.177L347.741,563.158L347.692,563.138L347.643,563.118L347.594,563.098L347.546,563.078L347.497,563.057L347.449,563.037L347.4,563.016L347.352,562.996L347.304,562.975L347.256,562.954L347.208,562.934L347.16,562.913L347.112,562.892L347.064,562.87L347.016,562.849L346.969,562.828L346.921,562.806L346.874,562.785L346.827,562.763L346.779,562.741L346.685,562.698L346.591,562.654L346.498,562.61L346.405,562.565L346.312,562.52L346.22,562.475L346.128,562.429L346.036,562.384L345.945,562.338L345.854,562.291L345.764,562.245L345.674,562.198L345.584,562.151L345.495,562.104L345.406,562.057L345.317,562.009L345.229,561.962L345.142,561.914L345.055,561.866L344.968,561.818L344.881,561.77L344.796,561.721L344.71,561.673L344.625,561.624L344.54,561.576L344.456,561.527L344.372,561.478L344.289,561.43L344.206,561.381L344.124,561.332L344.042,561.283L343.96,561.234L343.879,561.185L343.799,561.136L343.719,561.087L343.639,561.039L343.56,560.99L343.481,560.941L343.403,560.892L343.326,560.844L343.248,560.795L343.172,560.747L343.096,560.699L343.02,560.65L342.945,560.602L342.87,560.555L342.796,560.507L342.722,560.459L342.649,560.412L342.577,560.365L342.505,560.318L342.433,560.271L342.362,560.224L342.292,560.178L342.221,560.131L342.084,560.041L341.948,559.95L341.815,559.861L341.684,559.773L341.555,559.687L341.429,559.602L341.305,559.519L341.066,559.358L340.837,559.204L340.727,559.131L340.62,559.059L340.516,558.99L340.415,558.924L340.317,558.86L340.221,558.799L340.176,558.77L340.153,558.755L340.131,558.741L340.087,558.714L340.041,558.685L340.04,558.684L339.656,558.376L339.362,558.004L339.057,557.126L339.14,556.165L339.623,555.234L339.625,555.232L340.408,554.547L341.321,554.24L342.247,554.325L342.68,554.519L343.074,554.815L343.118,554.857L343.165,554.9L343.211,554.944L343.258,554.989L343.351,555.077L343.445,555.168L343.54,555.261L343.636,555.354L343.733,555.449L343.831,555.546L344.029,555.742L344.233,555.945L344.337,556.047L344.441,556.151L344.547,556.256L344.654,556.362L344.763,556.468L344.872,556.576L344.984,556.685L345.039,556.739L345.095,556.794L345.152,556.848L345.209,556.903L345.266,556.959L345.323,557.014L345.381,557.069L345.439,557.125L345.498,557.181L345.556,557.236L345.615,557.292L345.675,557.348L345.734,557.404L345.794,557.46L345.854,557.517L345.915,557.573L345.976,557.629L346.037,557.685L346.099,557.742L346.16,557.798L346.223,557.855L346.285,557.911L346.348,557.968L346.411,558.024L346.474,558.08L346.538,558.137L346.602,558.193L346.666,558.249L346.73,558.306L346.795,558.362L346.86,558.418L346.926,558.474L346.991,558.53L347.057,558.586L347.123,558.641L347.19,558.697L347.257,558.752L347.324,558.808L347.391,558.863L347.459,558.918L347.527,558.973L347.595,559.027L347.664,559.082L347.732,559.136L347.802,559.19L347.871,559.244L347.94,559.298L348.01,559.351L348.08,559.405L348.151,559.458L348.222,559.51L348.292,559.563L348.364,559.615L348.435,559.667L348.543,559.744L348.579,559.77L348.615,559.796L348.651,559.821L348.687,559.847L348.723,559.872L348.76,559.897L348.796,559.922L348.833,559.947L348.869,559.972L348.906,559.997L348.942,560.022L348.979,560.047L349.016,560.072L349.053,560.096L349.09,560.121L349.127,560.145L349.164,560.169L349.201,560.193L349.238,560.218L349.275,560.242L349.312,560.265L349.349,560.289L349.387,560.313L349.424,560.337L349.462,560.36L349.499,560.384L349.537,560.407L349.575,560.43L349.612,560.453L349.65,560.476L349.688,560.499L349.726,560.522L349.741,560.531L349.764,560.544L349.802,560.567L349.84,560.589L349.878,560.611L349.916,560.633L349.955,560.655L349.993,560.677L350.032,560.698L350.07,560.72L350.109,560.741L350.147,560.763L350.186,560.784L350.225,560.805L350.263,560.826L350.302,560.847L350.341,560.867L350.38,560.888L350.419,560.909L350.458,560.929L350.497,560.949L350.536,560.969L350.575,560.989L350.615,561.009L350.654,561.028L350.693,561.048L350.733,561.067L350.772,561.087L350.812,561.106L350.851,561.125L350.891,561.144L350.931,561.162L350.97,561.181L351.01,561.199L351.05,561.217L351.09,561.236L351.13,561.254L351.17,561.271L351.205,561.287L351.24,561.302L351.275,561.318L351.31,561.333L351.345,561.348L351.381,561.363L351.416,561.378L351.451,561.392L351.487,561.407L351.522,561.421L351.558,561.436L351.593,561.45L351.629,561.464L351.664,561.478L351.7,561.492L351.736,561.506L351.772,561.519L351.807,561.533L351.843,561.546L351.879,561.559L351.915,561.572L351.951,561.585L351.987,561.598L352.023,561.611L352.059,561.624L352.095,561.636L352.131,561.648L352.167,561.661L352.203,561.673L352.239,561.685L352.276,561.696L352.312,561.708L352.348,561.72L352.385,561.731L352.421,561.742L352.458,561.753L352.494,561.764L352.531,561.775L352.567,561.786L352.604,561.797L352.641,561.807L352.677,561.817L352.714,561.827L352.751,561.837L352.788,561.847L352.825,561.857L352.862,561.867L352.898,561.876L352.935,561.885L352.973,561.895L353.01,561.904L353.047,561.912L353.084,561.921L353.121,561.93L353.158,561.938L353.196,561.946L353.233,561.955L353.27,561.963L353.308,561.97L353.345,561.978L353.383,561.986L353.42,561.993L353.458,562L353.495,562.007L353.533,562.014L353.571,562.021L353.609,562.027L353.646,562.034L353.684,562.04L353.722,562.046L353.76,562.052L353.798,562.058L353.836,562.063L353.874,562.069L353.912,562.074L353.951,562.079L353.989,562.084L354.027,562.089L354.065,562.094L354.104,562.098L354.142,562.102L354.181,562.106L354.219,562.11L354.258,562.114L354.296,562.118L354.335,562.121L354.374,562.124L354.412,562.128L354.451,562.13L354.49,562.133L354.529,562.136L354.542,562.137L354.568,562.138L354.607,562.14L354.646,562.141L354.685,562.143L354.724,562.144L354.763,562.145L354.802,562.146L354.842,562.147L354.881,562.147L354.92,562.148L354.96,562.148L354.999,562.148L355.039,562.147L355.078,562.147L355.118,562.146L355.157,562.146L355.197,562.145L355.237,562.144L355.277,562.142L355.316,562.141L355.356,562.139L355.396,562.137L355.436,562.135L355.476,562.132L355.517,562.13L355.557,562.127L355.597,562.124L355.637,562.121L355.678,562.118L355.718,562.114L355.758,562.11L355.799,562.106L355.839,562.102L355.88,562.098L355.921,562.093L355.961,562.089L356.002,562.084L356.049,562.078L356.095,562.072L356.14,562.065L356.186,562.058L356.231,562.051L356.276,562.044L356.32,562.036L356.364,562.028L356.408,562.02L356.452,562.012L356.495,562.003L356.538,561.994L356.581,561.984L356.623,561.975L356.665,561.965L356.707,561.954L356.749,561.944L356.79,561.933L356.831,561.922L356.872,561.911L356.912,561.899L356.952,561.887L356.992,561.875L357.032,561.863L357.071,561.85L357.111,561.837L357.149,561.824L357.188,561.811L357.226,561.797L357.264,561.783L357.302,561.769L357.34,561.755L357.377,561.74L357.414,561.725L357.451,561.71L357.488,561.695L357.524,561.679L357.56,561.663L357.596,561.647L357.631,561.631L357.667,561.614L357.702,561.597L357.737,561.58L357.771,561.563L357.806,561.545L357.84,561.528L357.874,561.51L357.908,561.492L357.941,561.473L357.974,561.454L358.007,561.436L358.04,561.417L358.073,561.397L358.105,561.378L358.137,561.358L358.169,561.338L358.201,561.318L358.232,561.298L358.264,561.277L358.283,561.264L358.294,561.256L358.324,561.234L358.354,561.211L358.383,561.189L358.413,561.166L358.442,561.144L358.471,561.121L358.499,561.097L358.527,561.074L358.556,561.05L358.584,561.027L358.611,561.003L358.639,560.979L358.666,560.955L358.693,560.93L358.72,560.906L358.746,560.881L358.773,560.856L358.799,560.831L358.825,560.806L358.851,560.78L358.876,560.755L358.902,560.729L358.927,560.703L358.952,560.677L358.976,560.651L359.001,560.624L359.025,560.598L359.049,560.571L359.073,560.545L359.097,560.518L359.12,560.491L359.144,560.463L359.167,560.436L359.19,560.409L359.212,560.381L359.235,560.353L359.257,560.325L359.279,560.297L359.301,560.269L359.303,560.266L359.289,560.26L359.266,560.248L359.243,560.236L359.22,560.224L359.198,560.211L359.175,560.199L359.153,560.186L359.146,560.183L359.131,560.174L359.109,560.161L359.087,560.149L359.065,560.136L359.043,560.123L359.022,560.11L359.001,560.096L358.98,560.083L358.959,560.07L358.938,560.056L358.917,560.042L358.897,560.028L358.877,560.014L358.856,560L358.836,559.986L358.817,559.971L358.797,559.957L358.778,559.942L358.758,559.927L358.739,559.912L358.72,559.897L358.701,559.882L358.683,559.867L358.664,559.852L358.646,559.836L358.628,559.821L358.61,559.805L358.592,559.789L358.574,559.773L358.557,559.757L358.54,559.741L358.522,559.725L358.505,559.708L358.489,559.692L358.472,559.675L358.455,559.659L358.439,559.642L358.423,559.625L358.407,559.608L358.391,559.591L358.375,559.574L358.359,559.557L358.344,559.539L358.329,559.522L358.314,559.504L358.299,559.487L358.284,559.469L358.269,559.451L358.255,559.434L358.24,559.416L358.226,559.398L358.212,559.38L358.198,559.362L358.184,559.343L358.171,559.325L358.157,559.307L358.144,559.288L358.131,559.27L358.118,559.251L358.105,559.232L358.092,559.214L358.079,559.195L358.067,559.176L358.055,559.157L358.043,559.138L358.031,559.119L358.019,559.1L358.007,559.081L357.995,559.061L357.984,559.042L357.973,559.023L357.962,559.003L357.95,558.984L357.94,558.964L357.929,558.945L357.918,558.925L357.908,558.906L357.897,558.886L357.887,558.866L357.877,558.846L357.867,558.826L357.858,558.807L357.848,558.787L357.838,558.767L357.829,558.747L357.82,558.727L357.811,558.706L357.802,558.686L357.793,558.666L357.784,558.646L357.775,558.626L357.767,558.605L357.759,558.585L357.75,558.565L357.742,558.544L357.734,558.524L357.726,558.503L357.719,558.483L357.711,558.462L357.704,558.442L357.696,558.421L357.689,558.401L357.682,558.38L357.675,558.36L357.668,558.339L357.661,558.318L357.655,558.298L357.648,558.277L357.642,558.256L357.636,558.236L357.63,558.215L357.624,558.194L357.618,558.173L357.612,558.153L357.606,558.132L357.601,558.111L357.59,558.07L357.58,558.028L357.57,557.986L357.56,557.945L357.551,557.903L357.543,557.861L357.534,557.82L357.527,557.778L357.519,557.737L357.513,557.695L357.506,557.654L357.5,557.612L357.494,557.571L357.489,557.53L357.484,557.488L357.48,557.447L357.479,557.443L357.474,557.406L357.469,557.365L357.465,557.325L357.46,557.284L357.456,557.243L357.452,557.203L357.449,557.163L357.446,557.122L357.444,557.082L357.441,557.042L357.44,557.003L357.438,556.963L357.437,556.923L357.436,556.884L357.436,556.845L357.435,556.806L357.436,556.767L357.436,556.728L357.437,556.69L357.438,556.652L357.44,556.614L357.442,556.576L357.444,556.538L357.446,556.501L357.449,556.464L357.452,556.427L357.455,556.391L357.459,556.354L357.463,556.318L357.467,556.283L357.472,556.247L357.477,556.212L357.482,556.177L357.488,556.143L357.493,556.108L357.499,556.074L357.506,556.041L357.512,556.008L357.519,555.975L357.526,555.942L357.534,555.91L357.541,555.878L357.549,555.847L357.558,555.815L357.566,555.785L357.575,555.754L357.584,555.725L357.593,555.697L357.601,555.67L357.61,555.643L357.619,555.616L357.628,555.589L357.638,555.563L357.647,555.536L357.657,555.51L357.667,555.485L357.677,555.459L357.687,555.434L357.697,555.409L357.707,555.384L357.718,555.359L357.729,555.334L357.739,555.31L357.75,555.286L357.761,555.262L357.773,555.238L357.784,555.215L357.796,555.192L357.807,555.168L357.819,555.146L357.831,555.123L357.843,555.101L357.855,555.078L357.868,555.056L357.88,555.035L357.893,555.013L357.906,554.992L357.918,554.97L357.931,554.949L357.945,554.929L357.958,554.908L357.971,554.888L357.985,554.868L357.998,554.848L358.012,554.828L358.026,554.809L358.04,554.789L358.054,554.77L358.068,554.751L358.083,554.733L358.097,554.714L358.112,554.696L358.126,554.678L358.141,554.66L358.156,554.643L358.171,554.625L358.186,554.608L358.201,554.591L358.217,554.575L358.232,554.558L358.248,554.542L358.249,554.54L358.263,554.526L358.279,554.509L358.295,554.494L358.31,554.478L358.326,554.463L358.342,554.447L358.358,554.432L358.375,554.418L358.391,554.403L358.407,554.389L358.424,554.375L358.44,554.361L358.457,554.347L358.474,554.333L358.491,554.32L358.508,554.307L358.525,554.294L358.542,554.282L358.559,554.269L358.577,554.257L358.594,554.245L358.612,554.233L358.629,554.222L358.647,554.211L358.665,554.2L358.682,554.189L358.7,554.178L358.718,554.168L358.736,554.157L358.754,554.147L358.773,554.138L358.791,554.128L358.809,554.119L358.828,554.11L358.846,554.101L358.865,554.092L358.883,554.084L358.902,554.076L358.921,554.068L358.939,554.06L358.958,554.053L358.977,554.046L358.996,554.039L359.015,554.032L359.034,554.025L359.053,554.019L359.072,554.013L359.091,554.007L359.11,554.001L359.13,553.996L359.149,553.991L359.168,553.986L359.188,553.981L359.207,553.977L359.226,553.972L359.246,553.968L359.265,553.965L359.285,553.961L359.304,553.958L359.324,553.955L359.343,553.952L359.363,553.949L359.382,553.947L359.402,553.945L359.422,553.943L359.441,553.941L359.461,553.94L359.481,553.939L359.5,553.938L359.52,553.937L359.539,553.936L359.559,553.936L359.579,553.936L359.598,553.936L359.618,553.937L359.638,553.937L359.657,553.938L359.677,553.939L359.696,553.941L359.716,553.942L359.735,553.944L359.755,553.946L359.774,553.949L359.794,553.951L359.813,553.954L359.833,553.957L359.852,553.96L359.872,553.964L359.891,553.968L359.91,553.971L359.929,553.976L359.949,553.98L359.968,553.985L359.987,553.99L360.006,553.995L360.025,554L360.044,554.006L360.063,554.011L360.082,554.017L360.1,554.024L360.119,554.03L360.138,554.037L360.156,554.044L360.175,554.051L360.193,554.058L360.212,554.066L360.23,554.074L360.249,554.082L360.267,554.09L360.285,554.099L360.303,554.107L360.321,554.116L360.339,554.125L360.357,554.135L360.374,554.144L360.392,554.154L360.41,554.164L360.427,554.175L360.444,554.185L360.462,554.196L360.479,554.207L360.496,554.218L360.513,554.229L360.53,554.241L360.547,554.253L360.563,554.265L360.58,554.277L360.596,554.289L360.613,554.302L360.629,554.315L360.645,554.328L360.661,554.342L360.661,554.341L360.677,554.355L360.693,554.368L360.708,554.382L360.724,554.396L360.739,554.411L360.755,554.425L360.77,554.44L360.785,554.455L360.8,554.47L360.815,554.485L360.829,554.501L360.844,554.516L360.858,554.532L360.872,554.548L360.887,554.565L360.901,554.581L360.914,554.598L360.928,554.615L360.942,554.632L360.955,554.649L360.968,554.667L360.981,554.684L360.994,554.702L361.007,554.72L361.02,554.739L361.032,554.757L361.045,554.776L361.057,554.794L361.069,554.813L361.081,554.833L361.093,554.852L361.104,554.871L361.116,554.891L361.127,554.911L361.138,554.931L361.149,554.951L361.16,554.972L361.17,554.992L361.181,555.013L361.191,555.034L361.201,555.055L361.211,555.077L361.221,555.098L361.23,555.12L361.239,555.142L361.249,555.164L361.258,555.186L361.267,555.208L361.275,555.231L361.284,555.253L361.292,555.276L361.3,555.299L361.308,555.322L361.316,555.346L361.323,555.369L361.331,555.393L361.338,555.417L361.345,555.441L361.352,555.465L361.358,555.489L361.365,555.514L361.371,555.539L361.377,555.563L361.383,555.588L361.389,555.614L361.394,555.639L361.399,555.664L361.404,555.69L361.409,555.716L361.414,555.741L361.417,555.763L361.421,555.785L361.425,555.807L361.428,555.829L361.431,555.851L361.435,555.874L361.438,555.897L361.441,555.92L361.447,555.967L361.453,556.015L361.458,556.063L361.463,556.113L361.467,556.163L361.469,556.189L361.472,556.215L361.476,556.267L361.48,556.32L361.484,556.374L361.487,556.429L361.489,556.484L361.491,556.512L361.492,556.541L361.493,556.569L361.494,556.598L361.494,556.627L361.495,556.656L361.496,556.685L361.496,556.715L361.496,556.744L361.497,556.774L361.497,556.804L361.497,556.834L361.496,556.865L361.496,556.895L361.496,556.926L361.495,556.957L361.495,556.988L361.494,557.019L361.493,557.051L361.492,557.082L361.491,557.114L361.49,557.146L361.488,557.178L361.487,557.21L361.485,557.242L361.483,557.275L361.481,557.308L361.479,557.341L361.477,557.374L361.474,557.407L361.472,557.44L361.469,557.473L361.466,557.507L361.463,557.541L361.46,557.574L361.457,557.608L361.454,557.643L361.45,557.677L361.447,557.711L361.443,557.746L361.439,557.78L361.434,557.815L361.43,557.85L361.426,557.885L361.421,557.92L361.416,557.955L361.411,557.99L361.406,558.026L361.401,558.061L361.395,558.097L361.39,558.133L361.384,558.169L361.378,558.204L361.372,558.241L361.365,558.277L361.359,558.313L361.352,558.349L361.345,558.386L361.338,558.422L361.331,558.459L361.323,558.495L361.316,558.532L361.308,558.569L361.3,558.606L361.292,558.643L361.283,558.68L361.275,558.717L361.266,558.754L361.257,558.791L361.248,558.829L361.239,558.866L361.229,558.904L361.219,558.941L361.209,558.979L361.199,559.016L361.189,559.054L361.178,559.092L361.167,559.129L361.156,559.167L361.145,559.205L361.134,559.243L361.122,559.281L361.11,559.319L361.098,559.357L361.086,559.395L361.073,559.433L361.06,559.471L361.047,559.509L361.034,559.547L361.021,559.585L361.007,559.623L360.993,559.661L360.979,559.7L360.964,559.738L360.95,559.776L360.935,559.814L360.92,559.852L360.904,559.891L360.889,559.929L360.873,559.967L360.857,560.005L360.841,560.044L360.824,560.082L360.82,560.091L360.823,560.091L360.845,560.091L360.866,560.09L360.888,560.09L360.91,560.089L360.931,560.088L360.953,560.087L360.975,560.086L360.997,560.085L361.02,560.083L361.042,560.082L361.064,560.08L361.086,560.079L361.109,560.077L361.131,560.075L361.154,560.072L361.176,560.07L361.199,560.068L361.222,560.065L361.245,560.062L361.268,560.06L361.291,560.057L361.314,560.054L361.337,560.05L361.361,560.047L361.384,560.043L361.408,560.04L361.431,560.036L361.455,560.032L361.479,560.028L361.502,560.024L361.526,560.019L361.55,560.015L361.574,560.01L361.599,560.005L361.623,560L361.647,559.995L361.672,559.99L361.696,559.985L361.721,559.979L361.746,559.974L361.771,559.968L361.796,559.962L361.821,559.956L361.846,559.95L361.871,559.943L361.896,559.937L361.922,559.93L361.947,559.923L361.973,559.916L361.999,559.909L362.025,559.902L362.051,559.895L362.077,559.887L362.103,559.879L362.129,559.871L362.155,559.863L362.182,559.855L362.209,559.847L362.235,559.839L362.262,559.83L362.289,559.821L362.316,559.812L362.343,559.803L362.37,559.794L362.398,559.785L362.425,559.775L362.453,559.765L362.48,559.756L362.508,559.746L362.536,559.736L362.564,559.725L362.592,559.715L362.62,559.704L362.648,559.693L362.677,559.683L362.705,559.671L362.734,559.66L362.763,559.649L362.792,559.637L362.821,559.626L362.879,559.602L362.938,559.577L362.997,559.552L363.057,559.526L363.118,559.5L363.178,559.473L363.24,559.445L363.283,559.425L363.301,559.417L363.364,559.387L363.426,559.357L363.489,559.326L363.553,559.295L363.617,559.263L363.682,559.23L363.747,559.196L363.812,559.162L363.879,559.127L363.945,559.092L364.012,559.056L364.08,559.019L364.149,558.981L364.217,558.943L364.287,558.904L364.357,558.865L364.427,558.824L364.498,558.783L364.57,558.742L364.642,558.699L364.715,558.656L364.788,558.612L364.862,558.568L364.937,558.523L365.012,558.477L365.088,558.43L365.164,558.383L365.241,558.335L365.318,558.286L365.397,558.237L365.475,558.187L365.555,558.136L365.635,558.084L365.715,558.032L365.796,557.979L365.878,557.925L365.961,557.87L366.044,557.815L366.128,557.759L366.212,557.702L366.297,557.645L366.383,557.586L366.469,557.527L366.556,557.468L366.644,557.407L366.732,557.346L366.802,557.298L366.821,557.284L366.911,557.22L367,557.156L367.091,557.091L367.182,557.025L367.3,556.939L367.418,556.854L367.535,556.768L367.652,556.683L367.887,556.511L368.121,556.34L368.356,556.168L368.59,555.997L368.824,555.826L368.941,555.741L368.998,555.7L369.057,555.654L369.173,555.566L369.288,555.478L369.403,555.39L369.519,555.303L369.634,555.216L369.75,555.128L369.866,555.041L369.982,554.955L370.099,554.868L370.215,554.782L370.332,554.697L370.449,554.611L370.566,554.526L370.625,554.484L370.684,554.441L370.743,554.399L370.802,554.357L370.861,554.315L370.92,554.273L370.979,554.231L371.039,554.19L371.098,554.148L371.157,554.106L371.217,554.065L371.277,554.024L371.336,553.983L371.396,553.942L371.456,553.901L371.516,553.86L371.576,553.819L371.636,553.779L371.696,553.738L371.757,553.698L371.817,553.658L371.878,553.618L371.939,553.578L372,553.538L372.06,553.499L372.122,553.459L372.183,553.42L372.244,553.381L372.305,553.342L372.367,553.303L372.429,553.264L372.49,553.226L372.552,553.187L372.614,553.149L372.677,553.111L372.739,553.073L372.801,553.035L372.864,552.998L372.927,552.96L372.99,552.923L373.053,552.886L373.116,552.849L373.179,552.813L373.242,552.776L373.306,552.74L373.37,552.704L373.434,552.668L373.498,552.632L373.562,552.597L373.627,552.562L373.691,552.527L373.756,552.492L373.821,552.457L373.886,552.423L373.951,552.388L374.016,552.354L374.082,552.321L374.148,552.287L374.214,552.254L374.28,552.221L374.346,552.188L374.413,552.155L374.479,552.123L374.532,552.097L374.546,552.091L374.613,552.058L374.68,552.026L374.747,551.994L374.815,551.962L374.882,551.931L374.95,551.899L375.018,551.869L375.086,551.838L375.155,551.807L375.224,551.777L375.292,551.747L375.362,551.718L375.431,551.688L375.5,551.659L375.57,551.631L375.64,551.602L375.71,551.574L375.781,551.546L375.851,551.518L375.922,551.491L375.993,551.464L376.064,551.437L376.136,551.411L376.208,551.384L376.28,551.359L376.352,551.333L376.424,551.308L376.497,551.283L376.57,551.258L376.643,551.234L376.717,551.21L376.79,551.187L376.864,551.163L376.938,551.141L377.013,551.118L377.087,551.096L377.162,551.074L377.237,551.052L377.313,551.031L377.388,551.01L377.464,550.99L377.54,550.97L377.617,550.95L377.693,550.931L377.77,550.911L377.848,550.893L377.925,550.875L378.003,550.857L378.081,550.839L378.159,550.822L378.237,550.805L378.316,550.789L378.395,550.773L378.474,550.757L378.554,550.742L378.633,550.728L378.713,550.713L378.794,550.699L378.874,550.686L378.955,550.673L379.036,550.66L379.118,550.648L379.199,550.636L379.281,550.624L379.363,550.613L379.446,550.603L379.529,550.592L379.612,550.583L379.695,550.573L379.778,550.565L379.862,550.556L379.946,550.548L380.031,550.541L380.115,550.534L380.2,550.527L380.284,550.521L380.328,550.518L380.371,550.515L380.414,550.513L380.457,550.51L380.5,550.508L380.543,550.505L380.586,550.503L380.629,550.501L380.672,550.499L380.715,550.497L380.759,550.496L380.802,550.494L380.846,550.492L380.889,550.491L380.933,550.49L380.977,550.489L381.021,550.488L381.064,550.487L381.108,550.486L381.152,550.485L381.197,550.485L381.241,550.484L381.285,550.484L381.329,550.484L381.374,550.484L381.418,550.484ZM358.606,559.169L358.605,559.167L358.618,559.183L358.632,559.198L358.631,559.197L358.645,559.212L358.659,559.228L358.658,559.226L358.672,559.241L358.686,559.256L358.685,559.255L358.699,559.27L358.714,559.285L358.712,559.284L358.727,559.299L358.742,559.313L358.741,559.312L358.755,559.327L358.77,559.341L358.769,559.34L358.784,559.354L358.799,559.369L358.798,559.367L358.814,559.382L358.829,559.396L358.828,559.395L358.843,559.409L358.859,559.422L358.858,559.421L358.874,559.435L358.89,559.449L358.889,559.448L358.905,559.461L358.921,559.475L358.92,559.473L358.936,559.487L358.953,559.5L358.951,559.499L358.968,559.512L358.985,559.525L358.984,559.524L359.001,559.537L359.018,559.55L359.016,559.549L359.034,559.562L359.051,559.574L359.05,559.573L359.067,559.586L359.085,559.598L359.083,559.597L359.101,559.609L359.119,559.621L359.118,559.62L359.136,559.632L359.154,559.644L359.153,559.643L359.171,559.655L359.19,559.667L359.188,559.666L359.207,559.677L359.226,559.689L359.224,559.688L359.243,559.699L359.262,559.71L359.261,559.709L359.28,559.72L359.3,559.731L359.298,559.731L359.318,559.741L359.337,559.752L359.336,559.751L359.356,559.762L359.376,559.772L359.374,559.771L359.394,559.781L359.415,559.791L359.413,559.79L359.434,559.8L359.455,559.81L359.453,559.809L359.474,559.819L359.495,559.828L359.493,559.827L359.515,559.836L359.535,559.845L359.556,559.854L359.585,559.865L359.586,559.863L359.605,559.833L359.624,559.804L359.642,559.774L359.661,559.744L359.679,559.713L359.697,559.683L359.714,559.653L359.732,559.622L359.749,559.592L359.767,559.561L359.784,559.531L359.8,559.5L359.817,559.469L359.833,559.439L359.85,559.408L359.866,559.377L359.882,559.346L359.897,559.315L359.913,559.284L359.928,559.252L359.943,559.221L359.958,559.19L359.973,559.159L359.988,559.127L360.002,559.096L360.016,559.065L360.031,559.033L360.044,559.002L360.058,558.97L360.072,558.939L360.085,558.907L360.098,558.875L360.111,558.844L360.124,558.812L360.137,558.781L360.149,558.749L360.161,558.717L360.174,558.686L360.186,558.654L360.197,558.622L360.209,558.591L360.22,558.559L360.232,558.527L360.243,558.496L360.254,558.464L360.264,558.433L360.275,558.401L360.286,558.369L360.296,558.338L360.306,558.306L360.316,558.275L360.326,558.243L360.335,558.212L360.345,558.18L360.354,558.149L360.363,558.118L360.372,558.086L360.381,558.055L360.39,558.024L360.398,557.993L360.406,557.962L360.415,557.931L360.423,557.9L360.43,557.869L360.438,557.838L360.446,557.807L360.453,557.776L360.46,557.746L360.468,557.715L360.475,557.685L360.481,557.654L360.488,557.624L360.495,557.594L360.501,557.563L360.507,557.533L360.513,557.503L360.519,557.474L360.525,557.444L360.531,557.414L360.536,557.384L360.541,557.355L360.547,557.326L360.552,557.296L360.557,557.267L360.562,557.238L360.566,557.209L360.571,557.181L360.575,557.152L360.579,557.123L360.584,557.095L360.588,557.067L360.591,557.039L360.595,557.011L360.599,556.983L360.602,556.955L360.606,556.927L360.609,556.9L360.612,556.873L360.615,556.846L360.618,556.819L360.62,556.792L360.623,556.765L360.626,556.739L360.628,556.712L360.63,556.686L360.632,556.66L360.634,556.635L360.636,556.609L360.638,556.584L360.64,556.558L360.641,556.533L360.643,556.509L360.644,556.484L360.646,556.435L360.648,556.387L360.65,556.34L360.651,556.294L360.652,556.249L360.652,556.227L360.652,556.205L360.651,556.161L360.65,556.119L360.649,556.077L360.647,556.037L360.645,555.997L360.644,555.978L360.643,555.96L360.641,555.941L360.64,555.922L360.638,555.904L360.637,555.886L360.635,555.869L360.634,555.852L360.632,555.831L360.632,555.834L360.63,555.813L360.627,555.792L360.628,555.795L360.625,555.775L360.622,555.754L360.623,555.758L360.62,555.737L360.617,555.717L360.617,555.72L360.614,555.7L360.61,555.68L360.611,555.684L360.607,555.664L360.604,555.644L360.604,555.648L360.601,555.628L360.596,555.609L360.597,555.612L360.593,555.593L360.589,555.574L360.59,555.578L360.585,555.559L360.58,555.54L360.581,555.543L360.576,555.525L360.571,555.506L360.572,555.51L360.567,555.492L360.562,555.473L360.563,555.477L360.558,555.459L360.552,555.441L360.553,555.445L360.548,555.427L360.542,555.409L360.543,555.413L360.537,555.395L360.531,555.378L360.532,555.382L360.526,555.365L360.52,555.348L360.521,555.351L360.515,555.334L360.508,555.318L360.51,555.321L360.503,555.305L360.496,555.288L360.498,555.292L360.491,555.276L360.483,555.26L360.485,555.263L360.478,555.247L360.47,555.232L360.472,555.235L360.465,555.219L360.457,555.204L360.459,555.207L360.451,555.192L360.443,555.177L360.445,555.18L360.437,555.165L360.429,555.151L360.431,555.154L360.423,555.139L360.414,555.125L360.416,555.128L360.408,555.114L360.399,555.1L360.402,555.103L360.393,555.089L360.384,555.075L360.386,555.078L360.377,555.065L360.369,555.051L360.371,555.054L360.362,555.041L360.353,555.028L360.355,555.031L360.346,555.018L360.336,555.005L360.339,555.008L360.329,554.995L360.319,554.982L360.322,554.985L360.312,554.973L360.303,554.961L360.305,554.964L360.295,554.951L360.285,554.94L360.288,554.942L360.278,554.931L360.268,554.919L360.27,554.922L360.26,554.91L360.25,554.899L360.252,554.902L360.242,554.89L360.232,554.879L360.234,554.882L360.224,554.871L360.213,554.86L360.216,554.863L360.205,554.853L360.194,554.842L360.197,554.845L360.185,554.833L360.188,554.836L360.175,554.824L360.178,554.827L360.166,554.816L360.169,554.818L360.156,554.807L360.159,554.809L360.146,554.799L360.149,554.801L360.136,554.79L360.14,554.793L360.127,554.782L360.13,554.785L360.117,554.774L360.12,554.776L360.107,554.766L360.11,554.769L360.097,554.759L360.1,554.761L360.087,554.751L360.09,554.753L360.076,554.744L360.08,554.746L360.066,554.736L360.069,554.738L360.056,554.729L360.059,554.731L360.046,554.722L360.049,554.724L360.035,554.715L360.038,554.717L360.025,554.708L360.028,554.71L360.014,554.702L360.018,554.704L360.004,554.695L360.007,554.697L359.993,554.689L359.996,554.691L359.982,554.683L359.986,554.684L359.972,554.677L359.975,554.678L359.961,554.671L359.964,554.672L359.95,554.665L359.954,554.666L359.939,554.659L359.943,554.661L359.928,554.654L359.932,554.655L359.917,554.648L359.921,554.65L359.906,554.643L359.91,554.644L359.895,554.638L359.899,554.639L359.884,554.633L359.888,554.634L359.873,554.628L359.876,554.629L359.862,554.623L359.865,554.624L359.85,554.619L359.854,554.62L359.839,554.614L359.843,554.615L359.828,554.61L359.831,554.611L359.816,554.606L359.82,554.607L359.805,554.602L359.809,554.603L359.793,554.598L359.797,554.599L359.782,554.594L359.786,554.595L359.77,554.59L359.774,554.591L359.759,554.587L359.762,554.588L359.747,554.583L359.751,554.584L359.735,554.58L359.739,554.581L359.724,554.577L359.727,554.578L359.712,554.574L359.716,554.575L359.7,554.571L359.704,554.572L359.688,554.569L359.692,554.569L359.676,554.566L359.68,554.567L359.664,554.564L359.668,554.564L359.652,554.562L359.656,554.562L359.64,554.56L359.644,554.56L359.628,554.558L359.632,554.558L359.616,554.556L359.62,554.556L359.604,554.554L359.608,554.555L359.592,554.553L359.596,554.553L359.58,554.551L359.584,554.552L359.568,554.55L359.571,554.55L359.555,554.549L359.559,554.549L359.543,554.548L359.547,554.548L359.531,554.547L359.534,554.547L359.518,554.547L359.522,554.547L359.506,554.546L359.51,554.546L359.494,554.546L359.497,554.546L359.481,554.546L359.485,554.545L359.469,554.546L359.472,554.545L359.456,554.546L359.46,554.545L359.444,554.546L359.447,554.546L359.431,554.546L359.435,554.546L359.418,554.547L359.422,554.547L359.406,554.548L359.409,554.547L359.393,554.548L359.397,554.548L359.38,554.549L359.384,554.549L359.368,554.551L359.371,554.55L359.355,554.552L359.358,554.551L359.342,554.553L359.346,554.553L359.33,554.555L359.333,554.554L359.317,554.557L359.32,554.556L359.304,554.559L359.307,554.558L359.291,554.561L359.294,554.56L359.278,554.563L359.281,554.562L359.265,554.565L359.269,554.565L359.252,554.568L359.256,554.567L359.239,554.571L359.243,554.57L359.226,554.574L359.23,554.573L359.213,554.577L359.217,554.576L359.201,554.58L359.204,554.579L359.187,554.583L359.191,554.582L359.174,554.587L359.178,554.586L359.161,554.591L359.165,554.59L359.148,554.594L359.151,554.593L359.135,554.599L359.138,554.597L359.122,554.603L359.125,554.602L359.109,554.607L359.112,554.606L359.098,554.611L359.083,554.616L359.086,554.615L359.071,554.621L359.057,554.626L359.06,554.625L359.045,554.631L359.03,554.637L359.033,554.636L359.019,554.642L359.004,554.649L359.007,554.647L358.992,554.654L358.978,554.661L358.98,554.659L358.966,554.666L358.951,554.674L358.954,554.672L358.94,554.68L358.925,554.687L358.928,554.686L358.913,554.693L358.899,554.701L358.901,554.7L358.887,554.708L358.872,554.717L358.875,554.715L358.86,554.724L358.846,554.732L358.848,554.731L358.834,554.74L358.82,554.749L358.822,554.747L358.808,554.757L358.794,554.766L358.796,554.765L358.782,554.774L358.767,554.784L358.77,554.783L358.755,554.793L358.741,554.803L358.743,554.802L358.729,554.812L358.715,554.823L358.717,554.821L358.703,554.832L358.689,554.844L358.691,554.842L358.677,554.853L358.663,554.865L358.665,554.863L358.651,554.875L358.638,554.887L358.639,554.885L358.626,554.898L358.613,554.909L358.612,554.91L358.614,554.908L358.6,554.921L358.587,554.934L358.589,554.932L358.575,554.946L358.562,554.959L358.563,554.957L358.55,554.971L358.537,554.985L358.539,554.983L358.525,554.997L358.512,555.012L358.514,555.01L358.501,555.025L358.488,555.039L358.489,555.037L358.476,555.052L358.464,555.068L358.465,555.066L358.452,555.081L358.439,555.097L358.441,555.095L358.428,555.111L358.416,555.127L358.417,555.125L358.404,555.141L358.392,555.158L358.393,555.156L358.381,555.173L358.369,555.19L358.37,555.188L358.358,555.205L358.345,555.223L358.347,555.221L358.335,555.238L358.323,555.256L358.324,555.254L358.312,555.272L358.3,555.291L358.301,555.289L358.289,555.307L358.278,555.326L358.279,555.324L358.267,555.343L358.256,555.362L358.257,555.361L358.245,555.38L358.234,555.4L358.235,555.398L358.224,555.418L358.212,555.438L358.213,555.436L358.202,555.456L358.191,555.477L358.192,555.475L358.181,555.496L358.171,555.516L358.161,555.536L358.151,555.557L358.141,555.577L358.131,555.598L358.121,555.62L358.111,555.641L358.102,555.663L358.092,555.685L358.083,555.707L358.073,555.729L358.064,555.752L358.055,555.775L358.046,555.798L358.037,555.822L358.028,555.845L358.019,555.869L358.01,555.895L358.011,555.892L358.002,555.918L357.993,555.945L357.994,555.943L357.986,555.97L357.977,555.997L357.978,555.995L357.97,556.023L357.962,556.051L357.962,556.049L357.955,556.078L357.947,556.106L357.94,556.135L357.933,556.164L357.927,556.193L357.92,556.223L357.914,556.253L357.908,556.284L357.902,556.315L357.896,556.346L357.891,556.377L357.886,556.409L357.881,556.442L357.877,556.474L357.872,556.507L357.868,556.54L357.864,556.574L357.861,556.608L357.858,556.642L357.855,556.676L357.852,556.71L357.849,556.745L357.847,556.78L357.845,556.815L357.844,556.851L357.843,556.887L357.842,556.922L357.841,556.958L357.841,556.995L357.841,557.031L357.841,557.068L357.842,557.104L357.843,557.141L357.844,557.178L357.845,557.215L357.847,557.253L357.85,557.29L357.852,557.327L357.855,557.365L357.858,557.399L357.864,557.44L357.869,557.478L357.875,557.515L357.881,557.553L357.888,557.591L357.895,557.628L357.902,557.666L357.91,557.704L357.918,557.741L357.927,557.779L357.935,557.817L357.945,557.854L357.954,557.892L357.964,557.929L357.975,557.966L357.986,558.004L357.997,558.041L358.003,558.059L358.008,558.078L358.014,558.096L358.02,558.115L358.027,558.133L358.033,558.152L358.039,558.17L358.046,558.189L358.052,558.207L358.059,558.225L358.066,558.243L358.072,558.262L358.079,558.28L358.087,558.298L358.094,558.316L358.101,558.334L358.108,558.352L358.116,558.37L358.124,558.388L358.131,558.406L358.139,558.424L358.147,558.442L358.155,558.46L358.163,558.477L358.171,558.495L358.18,558.513L358.188,558.53L358.197,558.548L358.205,558.565L358.214,558.583L358.223,558.6L358.232,558.618L358.241,558.635L358.25,558.652L358.26,558.669L358.269,558.686L358.279,558.703L358.288,558.72L358.298,558.737L358.308,558.754L358.318,558.771L358.328,558.788L358.339,558.804L358.349,558.821L358.359,558.838L358.37,558.854L358.381,558.87L358.391,558.887L358.402,558.903L358.413,558.919L358.424,558.935L358.436,558.951L358.447,558.967L358.458,558.983L358.47,558.999L358.482,559.015L358.481,559.014L358.494,559.03L358.506,559.047L358.505,559.045L358.518,559.062L358.53,559.078L358.529,559.076L358.542,559.092L358.555,559.108L358.554,559.107L358.567,559.123L358.58,559.139L358.579,559.137L358.593,559.153L358.606,559.169Z"/>
                </g>
            </g>
        </g>
    </g>
</svg>
